<svg width="116" height="164" viewBox="0 0 116 164" fill="none" xmlns="http://www.w3.org/2000/svg">
<circle cx="2" cy="2" r="2" fill="#60CBDA"/>
<circle cx="2" cy="18" r="2" fill="#60CBDA"/>
<circle cx="2" cy="34" r="2" fill="#60CBDA"/>
<circle cx="2" cy="50" r="2" fill="#60CBDA"/>
<circle cx="2" cy="66" r="2" fill="#60CBDA"/>
<circle cx="2" cy="82" r="2" fill="#60CBDA"/>
<circle cx="2" cy="98" r="2" fill="#60CBDA"/>
<circle cx="2" cy="114" r="2" fill="#60CBDA"/>
<circle cx="2" cy="130" r="2" fill="#60CBDA"/>
<circle cx="2" cy="146" r="2" fill="#60CBDA"/>
<circle cx="2" cy="162" r="2" fill="#60CBDA"/>
<circle cx="16" cy="2" r="2" fill="#60CBDA"/>
<circle cx="16" cy="18" r="2" fill="#60CBDA"/>
<circle cx="16" cy="34" r="2" fill="#60CBDA"/>
<circle cx="16" cy="50" r="2" fill="#60CBDA"/>
<circle cx="16" cy="66" r="2" fill="#60CBDA"/>
<circle cx="16" cy="82" r="2" fill="#60CBDA"/>
<circle cx="16" cy="98" r="2" fill="#60CBDA"/>
<circle cx="16" cy="114" r="2" fill="#60CBDA"/>
<circle cx="16" cy="130" r="2" fill="#60CBDA"/>
<circle cx="16" cy="146" r="2" fill="#60CBDA"/>
<circle cx="16" cy="162" r="2" fill="#60CBDA"/>
<circle cx="30" cy="2" r="2" fill="#60CBDA"/>
<circle cx="30" cy="18" r="2" fill="#60CBDA"/>
<circle cx="30" cy="34" r="2" fill="#60CBDA"/>
<circle cx="30" cy="50" r="2" fill="#60CBDA"/>
<circle cx="30" cy="66" r="2" fill="#60CBDA"/>
<circle cx="30" cy="82" r="2" fill="#60CBDA"/>
<circle cx="30" cy="98" r="2" fill="#60CBDA"/>
<circle cx="30" cy="114" r="2" fill="#60CBDA"/>
<circle cx="30" cy="130" r="2" fill="#60CBDA"/>
<circle cx="30" cy="146" r="2" fill="#60CBDA"/>
<circle cx="30" cy="162" r="2" fill="#60CBDA"/>
<circle cx="44" cy="2" r="2" fill="#60CBDA"/>
<circle cx="44" cy="18" r="2" fill="#60CBDA"/>
<circle cx="44" cy="34" r="2" fill="#60CBDA"/>
<circle cx="44" cy="50" r="2" fill="#60CBDA"/>
<circle cx="44" cy="66" r="2" fill="#60CBDA"/>
<circle cx="44" cy="82" r="2" fill="#60CBDA"/>
<circle cx="44" cy="98" r="2" fill="#60CBDA"/>
<circle cx="44" cy="114" r="2" fill="#60CBDA"/>
<circle cx="44" cy="130" r="2" fill="#60CBDA"/>
<circle cx="44" cy="146" r="2" fill="#60CBDA"/>
<circle cx="44" cy="162" r="2" fill="#60CBDA"/>
<circle cx="58" cy="2" r="2" fill="#60CBDA"/>
<circle cx="58" cy="18" r="2" fill="#60CBDA"/>
<circle cx="58" cy="34" r="2" fill="#60CBDA"/>
<circle cx="58" cy="50" r="2" fill="#60CBDA"/>
<circle cx="58" cy="66" r="2" fill="#60CBDA"/>
<circle cx="58" cy="82" r="2" fill="#60CBDA"/>
<circle cx="58" cy="98" r="2" fill="#60CBDA"/>
<circle cx="58" cy="114" r="2" fill="#60CBDA"/>
<circle cx="58" cy="130" r="2" fill="#60CBDA"/>
<circle cx="58" cy="146" r="2" fill="#60CBDA"/>
<circle cx="58" cy="162" r="2" fill="#60CBDA"/>
<circle cx="72" cy="2" r="2" fill="#60CBDA"/>
<circle cx="72" cy="18" r="2" fill="#60CBDA"/>
<circle cx="72" cy="34" r="2" fill="#60CBDA"/>
<circle cx="72" cy="50" r="2" fill="#60CBDA"/>
<circle cx="72" cy="66" r="2" fill="#60CBDA"/>
<circle cx="72" cy="82" r="2" fill="#60CBDA"/>
<circle cx="72" cy="98" r="2" fill="#60CBDA"/>
<circle cx="72" cy="114" r="2" fill="#60CBDA"/>
<circle cx="72" cy="130" r="2" fill="#60CBDA"/>
<circle cx="72" cy="146" r="2" fill="#60CBDA"/>
<circle cx="72" cy="162" r="2" fill="#60CBDA"/>
<circle cx="86" cy="2" r="2" fill="#60CBDA"/>
<circle cx="86" cy="18" r="2" fill="#60CBDA"/>
<circle cx="86" cy="34" r="2" fill="#60CBDA"/>
<circle cx="86" cy="50" r="2" fill="#60CBDA"/>
<circle cx="86" cy="66" r="2" fill="#60CBDA"/>
<circle cx="86" cy="82" r="2" fill="#60CBDA"/>
<circle cx="86" cy="98" r="2" fill="#60CBDA"/>
<circle cx="86" cy="114" r="2" fill="#60CBDA"/>
<circle cx="86" cy="130" r="2" fill="#60CBDA"/>
<circle cx="86" cy="146" r="2" fill="#60CBDA"/>
<circle cx="86" cy="162" r="2" fill="#60CBDA"/>
<circle cx="100" cy="2" r="2" fill="#60CBDA"/>
<circle cx="100" cy="18" r="2" fill="#60CBDA"/>
<circle cx="100" cy="34" r="2" fill="#60CBDA"/>
<circle cx="100" cy="50" r="2" fill="#60CBDA"/>
<circle cx="100" cy="66" r="2" fill="#60CBDA"/>
<circle cx="100" cy="82" r="2" fill="#60CBDA"/>
<circle cx="100" cy="98" r="2" fill="#60CBDA"/>
<circle cx="100" cy="114" r="2" fill="#60CBDA"/>
<circle cx="100" cy="130" r="2" fill="#60CBDA"/>
<circle cx="100" cy="146" r="2" fill="#60CBDA"/>
<circle cx="100" cy="162" r="2" fill="#60CBDA"/>
<circle cx="114" cy="2" r="2" fill="#60CBDA"/>
<circle cx="114" cy="18" r="2" fill="#60CBDA"/>
<circle cx="114" cy="34" r="2" fill="#60CBDA"/>
<circle cx="114" cy="50" r="2" fill="#60CBDA"/>
<circle cx="114" cy="66" r="2" fill="#60CBDA"/>
<circle cx="114" cy="82" r="2" fill="#60CBDA"/>
<circle cx="114" cy="98" r="2" fill="#60CBDA"/>
<circle cx="114" cy="114" r="2" fill="#60CBDA"/>
<circle cx="114" cy="130" r="2" fill="#60CBDA"/>
<circle cx="114" cy="146" r="2" fill="#60CBDA"/>
<circle cx="114" cy="162" r="2" fill="#60CBDA"/>
</svg>
