<svg width="202" height="268" viewBox="0 0 202 268" fill="none" xmlns="http://www.w3.org/2000/svg">
<circle cx="2" cy="2" r="2" fill="#32BDD0"/>
<circle cx="2" cy="14" r="2" fill="#32BDD0"/>
<circle cx="2" cy="26" r="2" fill="#32BDD0"/>
<circle cx="2" cy="38" r="2" fill="#32BDD0"/>
<circle cx="2" cy="50" r="2" fill="#32BDD0"/>
<circle cx="2" cy="62" r="2" fill="#32BDD0"/>
<circle cx="2" cy="74" r="2" fill="#32BDD0"/>
<circle cx="2" cy="86" r="2" fill="#32BDD0"/>
<circle cx="2" cy="98" r="2" fill="#32BDD0"/>
<circle cx="2" cy="110" r="2" fill="#32BDD0"/>
<circle cx="2" cy="122" r="2" fill="#32BDD0"/>
<circle cx="2" cy="134" r="2" fill="#32BDD0"/>
<circle cx="2" cy="146" r="2" fill="#32BDD0"/>
<circle cx="2" cy="158" r="2" fill="#32BDD0"/>
<circle cx="2" cy="170" r="2" fill="#32BDD0"/>
<circle cx="2" cy="182" r="2" fill="#32BDD0"/>
<circle cx="2" cy="194" r="2" fill="#32BDD0"/>
<circle cx="2" cy="206" r="2" fill="#32BDD0"/>
<circle cx="2" cy="218" r="2" fill="#32BDD0"/>
<circle cx="2" cy="230" r="2" fill="#32BDD0"/>
<circle cx="2" cy="242" r="2" fill="#32BDD0"/>
<circle cx="2" cy="254" r="2" fill="#32BDD0"/>
<circle cx="2" cy="266" r="2" fill="#32BDD0"/>
<circle cx="13" cy="2" r="2" fill="#32BDD0"/>
<circle cx="13" cy="14" r="2" fill="#32BDD0"/>
<circle cx="13" cy="26" r="2" fill="#32BDD0"/>
<circle cx="13" cy="38" r="2" fill="#32BDD0"/>
<circle cx="13" cy="50" r="2" fill="#32BDD0"/>
<circle cx="13" cy="62" r="2" fill="#32BDD0"/>
<circle cx="13" cy="74" r="2" fill="#32BDD0"/>
<circle cx="13" cy="86" r="2" fill="#32BDD0"/>
<circle cx="13" cy="98" r="2" fill="#32BDD0"/>
<circle cx="13" cy="110" r="2" fill="#32BDD0"/>
<circle cx="13" cy="122" r="2" fill="#32BDD0"/>
<circle cx="13" cy="134" r="2" fill="#32BDD0"/>
<circle cx="13" cy="146" r="2" fill="#32BDD0"/>
<circle cx="13" cy="158" r="2" fill="#32BDD0"/>
<circle cx="13" cy="170" r="2" fill="#32BDD0"/>
<circle cx="13" cy="182" r="2" fill="#32BDD0"/>
<circle cx="13" cy="194" r="2" fill="#32BDD0"/>
<circle cx="13" cy="206" r="2" fill="#32BDD0"/>
<circle cx="13" cy="218" r="2" fill="#32BDD0"/>
<circle cx="13" cy="230" r="2" fill="#32BDD0"/>
<circle cx="13" cy="242" r="2" fill="#32BDD0"/>
<circle cx="13" cy="254" r="2" fill="#32BDD0"/>
<circle cx="13" cy="266" r="2" fill="#32BDD0"/>
<circle cx="24" cy="2" r="2" fill="#32BDD0"/>
<circle cx="24" cy="14" r="2" fill="#32BDD0"/>
<circle cx="24" cy="26" r="2" fill="#32BDD0"/>
<circle cx="24" cy="38" r="2" fill="#32BDD0"/>
<circle cx="24" cy="50" r="2" fill="#32BDD0"/>
<circle cx="24" cy="62" r="2" fill="#32BDD0"/>
<circle cx="24" cy="74" r="2" fill="#32BDD0"/>
<circle cx="24" cy="86" r="2" fill="#32BDD0"/>
<circle cx="24" cy="98" r="2" fill="#32BDD0"/>
<circle cx="24" cy="110" r="2" fill="#32BDD0"/>
<circle cx="24" cy="122" r="2" fill="#32BDD0"/>
<circle cx="24" cy="134" r="2" fill="#32BDD0"/>
<circle cx="24" cy="146" r="2" fill="#32BDD0"/>
<circle cx="24" cy="158" r="2" fill="#32BDD0"/>
<circle cx="24" cy="170" r="2" fill="#32BDD0"/>
<circle cx="24" cy="182" r="2" fill="#32BDD0"/>
<circle cx="24" cy="194" r="2" fill="#32BDD0"/>
<circle cx="24" cy="206" r="2" fill="#32BDD0"/>
<circle cx="24" cy="218" r="2" fill="#32BDD0"/>
<circle cx="24" cy="230" r="2" fill="#32BDD0"/>
<circle cx="24" cy="242" r="2" fill="#32BDD0"/>
<circle cx="24" cy="254" r="2" fill="#32BDD0"/>
<circle cx="24" cy="266" r="2" fill="#32BDD0"/>
<circle cx="35" cy="2" r="2" fill="#32BDD0"/>
<circle cx="35" cy="14" r="2" fill="#32BDD0"/>
<circle cx="35" cy="26" r="2" fill="#32BDD0"/>
<circle cx="35" cy="38" r="2" fill="#32BDD0"/>
<circle cx="35" cy="50" r="2" fill="#32BDD0"/>
<circle cx="35" cy="62" r="2" fill="#32BDD0"/>
<circle cx="35" cy="74" r="2" fill="#32BDD0"/>
<circle cx="35" cy="86" r="2" fill="#32BDD0"/>
<circle cx="35" cy="98" r="2" fill="#32BDD0"/>
<circle cx="35" cy="110" r="2" fill="#32BDD0"/>
<circle cx="35" cy="122" r="2" fill="#32BDD0"/>
<circle cx="35" cy="134" r="2" fill="#32BDD0"/>
<circle cx="35" cy="146" r="2" fill="#32BDD0"/>
<circle cx="35" cy="158" r="2" fill="#32BDD0"/>
<circle cx="35" cy="170" r="2" fill="#32BDD0"/>
<circle cx="35" cy="182" r="2" fill="#32BDD0"/>
<circle cx="35" cy="194" r="2" fill="#32BDD0"/>
<circle cx="35" cy="206" r="2" fill="#32BDD0"/>
<circle cx="35" cy="218" r="2" fill="#32BDD0"/>
<circle cx="35" cy="230" r="2" fill="#32BDD0"/>
<circle cx="35" cy="242" r="2" fill="#32BDD0"/>
<circle cx="35" cy="254" r="2" fill="#32BDD0"/>
<circle cx="35" cy="266" r="2" fill="#32BDD0"/>
<circle cx="46" cy="2" r="2" fill="#32BDD0"/>
<circle cx="46" cy="14" r="2" fill="#32BDD0"/>
<circle cx="46" cy="26" r="2" fill="#32BDD0"/>
<circle cx="46" cy="38" r="2" fill="#32BDD0"/>
<circle cx="46" cy="50" r="2" fill="#32BDD0"/>
<circle cx="46" cy="62" r="2" fill="#32BDD0"/>
<circle cx="46" cy="74" r="2" fill="#32BDD0"/>
<circle cx="46" cy="86" r="2" fill="#32BDD0"/>
<circle cx="46" cy="98" r="2" fill="#32BDD0"/>
<circle cx="46" cy="110" r="2" fill="#32BDD0"/>
<circle cx="46" cy="122" r="2" fill="#32BDD0"/>
<circle cx="46" cy="134" r="2" fill="#32BDD0"/>
<circle cx="46" cy="146" r="2" fill="#32BDD0"/>
<circle cx="46" cy="158" r="2" fill="#32BDD0"/>
<circle cx="46" cy="170" r="2" fill="#32BDD0"/>
<circle cx="46" cy="182" r="2" fill="#32BDD0"/>
<circle cx="46" cy="194" r="2" fill="#32BDD0"/>
<circle cx="46" cy="206" r="2" fill="#32BDD0"/>
<circle cx="46" cy="218" r="2" fill="#32BDD0"/>
<circle cx="46" cy="230" r="2" fill="#32BDD0"/>
<circle cx="46" cy="242" r="2" fill="#32BDD0"/>
<circle cx="46" cy="254" r="2" fill="#32BDD0"/>
<circle cx="46" cy="266" r="2" fill="#32BDD0"/>
<circle cx="57" cy="2" r="2" fill="#32BDD0"/>
<circle cx="57" cy="14" r="2" fill="#32BDD0"/>
<circle cx="57" cy="26" r="2" fill="#32BDD0"/>
<circle cx="57" cy="38" r="2" fill="#32BDD0"/>
<circle cx="57" cy="50" r="2" fill="#32BDD0"/>
<circle cx="57" cy="62" r="2" fill="#32BDD0"/>
<circle cx="57" cy="74" r="2" fill="#32BDD0"/>
<circle cx="57" cy="86" r="2" fill="#32BDD0"/>
<circle cx="57" cy="98" r="2" fill="#32BDD0"/>
<circle cx="57" cy="110" r="2" fill="#32BDD0"/>
<circle cx="57" cy="122" r="2" fill="#32BDD0"/>
<circle cx="57" cy="134" r="2" fill="#32BDD0"/>
<circle cx="57" cy="146" r="2" fill="#32BDD0"/>
<circle cx="57" cy="158" r="2" fill="#32BDD0"/>
<circle cx="57" cy="170" r="2" fill="#32BDD0"/>
<circle cx="57" cy="182" r="2" fill="#32BDD0"/>
<circle cx="57" cy="194" r="2" fill="#32BDD0"/>
<circle cx="57" cy="206" r="2" fill="#32BDD0"/>
<circle cx="57" cy="218" r="2" fill="#32BDD0"/>
<circle cx="57" cy="230" r="2" fill="#32BDD0"/>
<circle cx="57" cy="242" r="2" fill="#32BDD0"/>
<circle cx="57" cy="254" r="2" fill="#32BDD0"/>
<circle cx="57" cy="266" r="2" fill="#32BDD0"/>
<circle cx="68" cy="2" r="2" fill="#32BDD0"/>
<circle cx="68" cy="14" r="2" fill="#32BDD0"/>
<circle cx="68" cy="26" r="2" fill="#32BDD0"/>
<circle cx="68" cy="38" r="2" fill="#32BDD0"/>
<circle cx="68" cy="50" r="2" fill="#32BDD0"/>
<circle cx="68" cy="62" r="2" fill="#32BDD0"/>
<circle cx="68" cy="74" r="2" fill="#32BDD0"/>
<circle cx="68" cy="86" r="2" fill="#32BDD0"/>
<circle cx="68" cy="98" r="2" fill="#32BDD0"/>
<circle cx="68" cy="110" r="2" fill="#32BDD0"/>
<circle cx="68" cy="122" r="2" fill="#32BDD0"/>
<circle cx="68" cy="134" r="2" fill="#32BDD0"/>
<circle cx="68" cy="146" r="2" fill="#32BDD0"/>
<circle cx="68" cy="158" r="2" fill="#32BDD0"/>
<circle cx="68" cy="170" r="2" fill="#32BDD0"/>
<circle cx="68" cy="182" r="2" fill="#32BDD0"/>
<circle cx="68" cy="194" r="2" fill="#32BDD0"/>
<circle cx="68" cy="206" r="2" fill="#32BDD0"/>
<circle cx="68" cy="218" r="2" fill="#32BDD0"/>
<circle cx="68" cy="230" r="2" fill="#32BDD0"/>
<circle cx="68" cy="242" r="2" fill="#32BDD0"/>
<circle cx="68" cy="254" r="2" fill="#32BDD0"/>
<circle cx="68" cy="266" r="2" fill="#32BDD0"/>
<circle cx="79" cy="2" r="2" fill="#32BDD0"/>
<circle cx="79" cy="14" r="2" fill="#32BDD0"/>
<circle cx="79" cy="26" r="2" fill="#32BDD0"/>
<circle cx="79" cy="38" r="2" fill="#32BDD0"/>
<circle cx="79" cy="50" r="2" fill="#32BDD0"/>
<circle cx="79" cy="62" r="2" fill="#32BDD0"/>
<circle cx="79" cy="74" r="2" fill="#32BDD0"/>
<circle cx="79" cy="86" r="2" fill="#32BDD0"/>
<circle cx="79" cy="98" r="2" fill="#32BDD0"/>
<circle cx="79" cy="110" r="2" fill="#32BDD0"/>
<circle cx="79" cy="122" r="2" fill="#32BDD0"/>
<circle cx="79" cy="134" r="2" fill="#32BDD0"/>
<circle cx="79" cy="146" r="2" fill="#32BDD0"/>
<circle cx="79" cy="158" r="2" fill="#32BDD0"/>
<circle cx="79" cy="170" r="2" fill="#32BDD0"/>
<circle cx="79" cy="182" r="2" fill="#32BDD0"/>
<circle cx="79" cy="194" r="2" fill="#32BDD0"/>
<circle cx="79" cy="206" r="2" fill="#32BDD0"/>
<circle cx="79" cy="218" r="2" fill="#32BDD0"/>
<circle cx="79" cy="230" r="2" fill="#32BDD0"/>
<circle cx="79" cy="242" r="2" fill="#32BDD0"/>
<circle cx="79" cy="254" r="2" fill="#32BDD0"/>
<circle cx="79" cy="266" r="2" fill="#32BDD0"/>
<circle cx="90" cy="2" r="2" fill="#32BDD0"/>
<circle cx="90" cy="14" r="2" fill="#32BDD0"/>
<circle cx="90" cy="26" r="2" fill="#32BDD0"/>
<circle cx="90" cy="38" r="2" fill="#32BDD0"/>
<circle cx="90" cy="50" r="2" fill="#32BDD0"/>
<circle cx="90" cy="62" r="2" fill="#32BDD0"/>
<circle cx="90" cy="74" r="2" fill="#32BDD0"/>
<circle cx="90" cy="86" r="2" fill="#32BDD0"/>
<circle cx="90" cy="98" r="2" fill="#32BDD0"/>
<circle cx="90" cy="110" r="2" fill="#32BDD0"/>
<circle cx="90" cy="122" r="2" fill="#32BDD0"/>
<circle cx="90" cy="134" r="2" fill="#32BDD0"/>
<circle cx="90" cy="146" r="2" fill="#32BDD0"/>
<circle cx="90" cy="158" r="2" fill="#32BDD0"/>
<circle cx="90" cy="170" r="2" fill="#32BDD0"/>
<circle cx="90" cy="182" r="2" fill="#32BDD0"/>
<circle cx="90" cy="194" r="2" fill="#32BDD0"/>
<circle cx="90" cy="206" r="2" fill="#32BDD0"/>
<circle cx="90" cy="218" r="2" fill="#32BDD0"/>
<circle cx="90" cy="230" r="2" fill="#32BDD0"/>
<circle cx="90" cy="242" r="2" fill="#32BDD0"/>
<circle cx="90" cy="254" r="2" fill="#32BDD0"/>
<circle cx="90" cy="266" r="2" fill="#32BDD0"/>
<circle cx="101" cy="2" r="2" fill="#32BDD0"/>
<circle cx="101" cy="14" r="2" fill="#32BDD0"/>
<circle cx="101" cy="26" r="2" fill="#32BDD0"/>
<circle cx="101" cy="38" r="2" fill="#32BDD0"/>
<circle cx="101" cy="50" r="2" fill="#32BDD0"/>
<circle cx="101" cy="62" r="2" fill="#32BDD0"/>
<circle cx="101" cy="74" r="2" fill="#32BDD0"/>
<circle cx="101" cy="86" r="2" fill="#32BDD0"/>
<circle cx="101" cy="98" r="2" fill="#32BDD0"/>
<circle cx="101" cy="110" r="2" fill="#32BDD0"/>
<circle cx="101" cy="122" r="2" fill="#32BDD0"/>
<circle cx="101" cy="134" r="2" fill="#32BDD0"/>
<circle cx="101" cy="146" r="2" fill="#32BDD0"/>
<circle cx="101" cy="158" r="2" fill="#32BDD0"/>
<circle cx="101" cy="170" r="2" fill="#32BDD0"/>
<circle cx="101" cy="182" r="2" fill="#32BDD0"/>
<circle cx="101" cy="194" r="2" fill="#32BDD0"/>
<circle cx="101" cy="206" r="2" fill="#32BDD0"/>
<circle cx="101" cy="218" r="2" fill="#32BDD0"/>
<circle cx="101" cy="230" r="2" fill="#32BDD0"/>
<circle cx="101" cy="242" r="2" fill="#32BDD0"/>
<circle cx="101" cy="254" r="2" fill="#32BDD0"/>
<circle cx="101" cy="266" r="2" fill="#32BDD0"/>
<circle cx="112" cy="2" r="2" fill="#32BDD0"/>
<circle cx="112" cy="14" r="2" fill="#32BDD0"/>
<circle cx="112" cy="26" r="2" fill="#32BDD0"/>
<circle cx="112" cy="38" r="2" fill="#32BDD0"/>
<circle cx="112" cy="50" r="2" fill="#32BDD0"/>
<circle cx="112" cy="62" r="2" fill="#32BDD0"/>
<circle cx="112" cy="74" r="2" fill="#32BDD0"/>
<circle cx="112" cy="86" r="2" fill="#32BDD0"/>
<circle cx="112" cy="98" r="2" fill="#32BDD0"/>
<circle cx="112" cy="110" r="2" fill="#32BDD0"/>
<circle cx="112" cy="122" r="2" fill="#32BDD0"/>
<circle cx="112" cy="134" r="2" fill="#32BDD0"/>
<circle cx="112" cy="146" r="2" fill="#32BDD0"/>
<circle cx="112" cy="158" r="2" fill="#32BDD0"/>
<circle cx="112" cy="170" r="2" fill="#32BDD0"/>
<circle cx="112" cy="182" r="2" fill="#32BDD0"/>
<circle cx="112" cy="194" r="2" fill="#32BDD0"/>
<circle cx="112" cy="206" r="2" fill="#32BDD0"/>
<circle cx="112" cy="218" r="2" fill="#32BDD0"/>
<circle cx="112" cy="230" r="2" fill="#32BDD0"/>
<circle cx="112" cy="242" r="2" fill="#32BDD0"/>
<circle cx="112" cy="254" r="2" fill="#32BDD0"/>
<circle cx="112" cy="266" r="2" fill="#32BDD0"/>
<circle cx="123" cy="2" r="2" fill="#32BDD0"/>
<circle cx="123" cy="14" r="2" fill="#32BDD0"/>
<circle cx="123" cy="26" r="2" fill="#32BDD0"/>
<circle cx="123" cy="38" r="2" fill="#32BDD0"/>
<circle cx="123" cy="50" r="2" fill="#32BDD0"/>
<circle cx="123" cy="62" r="2" fill="#32BDD0"/>
<circle cx="123" cy="74" r="2" fill="#32BDD0"/>
<circle cx="123" cy="86" r="2" fill="#32BDD0"/>
<circle cx="123" cy="98" r="2" fill="#32BDD0"/>
<circle cx="123" cy="110" r="2" fill="#32BDD0"/>
<circle cx="123" cy="122" r="2" fill="#32BDD0"/>
<circle cx="123" cy="134" r="2" fill="#32BDD0"/>
<circle cx="123" cy="146" r="2" fill="#32BDD0"/>
<circle cx="123" cy="158" r="2" fill="#32BDD0"/>
<circle cx="123" cy="170" r="2" fill="#32BDD0"/>
<circle cx="123" cy="182" r="2" fill="#32BDD0"/>
<circle cx="123" cy="194" r="2" fill="#32BDD0"/>
<circle cx="123" cy="206" r="2" fill="#32BDD0"/>
<circle cx="123" cy="218" r="2" fill="#32BDD0"/>
<circle cx="123" cy="230" r="2" fill="#32BDD0"/>
<circle cx="123" cy="242" r="2" fill="#32BDD0"/>
<circle cx="123" cy="254" r="2" fill="#32BDD0"/>
<circle cx="123" cy="266" r="2" fill="#32BDD0"/>
<circle cx="134" cy="2" r="2" fill="#32BDD0"/>
<circle cx="134" cy="14" r="2" fill="#32BDD0"/>
<circle cx="134" cy="26" r="2" fill="#32BDD0"/>
<circle cx="134" cy="38" r="2" fill="#32BDD0"/>
<circle cx="134" cy="50" r="2" fill="#32BDD0"/>
<circle cx="134" cy="62" r="2" fill="#32BDD0"/>
<circle cx="134" cy="74" r="2" fill="#32BDD0"/>
<circle cx="134" cy="86" r="2" fill="#32BDD0"/>
<circle cx="134" cy="98" r="2" fill="#32BDD0"/>
<circle cx="134" cy="110" r="2" fill="#32BDD0"/>
<circle cx="134" cy="122" r="2" fill="#32BDD0"/>
<circle cx="134" cy="134" r="2" fill="#32BDD0"/>
<circle cx="134" cy="146" r="2" fill="#32BDD0"/>
<circle cx="134" cy="158" r="2" fill="#32BDD0"/>
<circle cx="134" cy="170" r="2" fill="#32BDD0"/>
<circle cx="134" cy="182" r="2" fill="#32BDD0"/>
<circle cx="134" cy="194" r="2" fill="#32BDD0"/>
<circle cx="134" cy="206" r="2" fill="#32BDD0"/>
<circle cx="134" cy="218" r="2" fill="#32BDD0"/>
<circle cx="134" cy="230" r="2" fill="#32BDD0"/>
<circle cx="134" cy="242" r="2" fill="#32BDD0"/>
<circle cx="134" cy="254" r="2" fill="#32BDD0"/>
<circle cx="134" cy="266" r="2" fill="#32BDD0"/>
<circle cx="145" cy="2" r="2" fill="#32BDD0"/>
<circle cx="145" cy="14" r="2" fill="#32BDD0"/>
<circle cx="145" cy="26" r="2" fill="#32BDD0"/>
<circle cx="145" cy="38" r="2" fill="#32BDD0"/>
<circle cx="145" cy="50" r="2" fill="#32BDD0"/>
<circle cx="145" cy="62" r="2" fill="#32BDD0"/>
<circle cx="145" cy="74" r="2" fill="#32BDD0"/>
<circle cx="145" cy="86" r="2" fill="#32BDD0"/>
<circle cx="145" cy="98" r="2" fill="#32BDD0"/>
<circle cx="145" cy="110" r="2" fill="#32BDD0"/>
<circle cx="145" cy="122" r="2" fill="#32BDD0"/>
<circle cx="145" cy="134" r="2" fill="#32BDD0"/>
<circle cx="145" cy="146" r="2" fill="#32BDD0"/>
<circle cx="145" cy="158" r="2" fill="#32BDD0"/>
<circle cx="145" cy="170" r="2" fill="#32BDD0"/>
<circle cx="145" cy="182" r="2" fill="#32BDD0"/>
<circle cx="145" cy="194" r="2" fill="#32BDD0"/>
<circle cx="145" cy="206" r="2" fill="#32BDD0"/>
<circle cx="145" cy="218" r="2" fill="#32BDD0"/>
<circle cx="145" cy="230" r="2" fill="#32BDD0"/>
<circle cx="145" cy="242" r="2" fill="#32BDD0"/>
<circle cx="145" cy="254" r="2" fill="#32BDD0"/>
<circle cx="145" cy="266" r="2" fill="#32BDD0"/>
<circle cx="156" cy="2" r="2" fill="#32BDD0"/>
<circle cx="156" cy="14" r="2" fill="#32BDD0"/>
<circle cx="156" cy="26" r="2" fill="#32BDD0"/>
<circle cx="156" cy="38" r="2" fill="#32BDD0"/>
<circle cx="156" cy="50" r="2" fill="#32BDD0"/>
<circle cx="156" cy="62" r="2" fill="#32BDD0"/>
<circle cx="156" cy="74" r="2" fill="#32BDD0"/>
<circle cx="156" cy="86" r="2" fill="#32BDD0"/>
<circle cx="156" cy="98" r="2" fill="#32BDD0"/>
<circle cx="156" cy="110" r="2" fill="#32BDD0"/>
<circle cx="156" cy="122" r="2" fill="#32BDD0"/>
<circle cx="156" cy="134" r="2" fill="#32BDD0"/>
<circle cx="156" cy="146" r="2" fill="#32BDD0"/>
<circle cx="156" cy="158" r="2" fill="#32BDD0"/>
<circle cx="156" cy="170" r="2" fill="#32BDD0"/>
<circle cx="156" cy="182" r="2" fill="#32BDD0"/>
<circle cx="156" cy="194" r="2" fill="#32BDD0"/>
<circle cx="156" cy="206" r="2" fill="#32BDD0"/>
<circle cx="156" cy="218" r="2" fill="#32BDD0"/>
<circle cx="156" cy="230" r="2" fill="#32BDD0"/>
<circle cx="156" cy="242" r="2" fill="#32BDD0"/>
<circle cx="156" cy="254" r="2" fill="#32BDD0"/>
<circle cx="156" cy="266" r="2" fill="#32BDD0"/>
<circle cx="167" cy="2" r="2" fill="#32BDD0"/>
<circle cx="167" cy="14" r="2" fill="#32BDD0"/>
<circle cx="167" cy="26" r="2" fill="#32BDD0"/>
<circle cx="167" cy="38" r="2" fill="#32BDD0"/>
<circle cx="167" cy="50" r="2" fill="#32BDD0"/>
<circle cx="167" cy="62" r="2" fill="#32BDD0"/>
<circle cx="167" cy="74" r="2" fill="#32BDD0"/>
<circle cx="167" cy="86" r="2" fill="#32BDD0"/>
<circle cx="167" cy="98" r="2" fill="#32BDD0"/>
<circle cx="167" cy="110" r="2" fill="#32BDD0"/>
<circle cx="167" cy="122" r="2" fill="#32BDD0"/>
<circle cx="167" cy="134" r="2" fill="#32BDD0"/>
<circle cx="167" cy="146" r="2" fill="#32BDD0"/>
<circle cx="167" cy="158" r="2" fill="#32BDD0"/>
<circle cx="167" cy="170" r="2" fill="#32BDD0"/>
<circle cx="167" cy="182" r="2" fill="#32BDD0"/>
<circle cx="167" cy="194" r="2" fill="#32BDD0"/>
<circle cx="167" cy="206" r="2" fill="#32BDD0"/>
<circle cx="167" cy="218" r="2" fill="#32BDD0"/>
<circle cx="167" cy="230" r="2" fill="#32BDD0"/>
<circle cx="167" cy="242" r="2" fill="#32BDD0"/>
<circle cx="167" cy="254" r="2" fill="#32BDD0"/>
<circle cx="167" cy="266" r="2" fill="#32BDD0"/>
<circle cx="178" cy="2" r="2" fill="#32BDD0"/>
<circle cx="178" cy="14" r="2" fill="#32BDD0"/>
<circle cx="178" cy="26" r="2" fill="#32BDD0"/>
<circle cx="178" cy="38" r="2" fill="#32BDD0"/>
<circle cx="178" cy="50" r="2" fill="#32BDD0"/>
<circle cx="178" cy="62" r="2" fill="#32BDD0"/>
<circle cx="178" cy="74" r="2" fill="#32BDD0"/>
<circle cx="178" cy="86" r="2" fill="#32BDD0"/>
<circle cx="178" cy="98" r="2" fill="#32BDD0"/>
<circle cx="178" cy="110" r="2" fill="#32BDD0"/>
<circle cx="178" cy="122" r="2" fill="#32BDD0"/>
<circle cx="178" cy="134" r="2" fill="#32BDD0"/>
<circle cx="178" cy="146" r="2" fill="#32BDD0"/>
<circle cx="178" cy="158" r="2" fill="#32BDD0"/>
<circle cx="178" cy="170" r="2" fill="#32BDD0"/>
<circle cx="178" cy="182" r="2" fill="#32BDD0"/>
<circle cx="178" cy="194" r="2" fill="#32BDD0"/>
<circle cx="178" cy="206" r="2" fill="#32BDD0"/>
<circle cx="178" cy="218" r="2" fill="#32BDD0"/>
<circle cx="178" cy="230" r="2" fill="#32BDD0"/>
<circle cx="178" cy="242" r="2" fill="#32BDD0"/>
<circle cx="178" cy="254" r="2" fill="#32BDD0"/>
<circle cx="178" cy="266" r="2" fill="#32BDD0"/>
<circle cx="189" cy="2" r="2" fill="#32BDD0"/>
<circle cx="189" cy="14" r="2" fill="#32BDD0"/>
<circle cx="189" cy="26" r="2" fill="#32BDD0"/>
<circle cx="189" cy="38" r="2" fill="#32BDD0"/>
<circle cx="189" cy="50" r="2" fill="#32BDD0"/>
<circle cx="189" cy="62" r="2" fill="#32BDD0"/>
<circle cx="189" cy="74" r="2" fill="#32BDD0"/>
<circle cx="189" cy="86" r="2" fill="#32BDD0"/>
<circle cx="189" cy="98" r="2" fill="#32BDD0"/>
<circle cx="189" cy="110" r="2" fill="#32BDD0"/>
<circle cx="189" cy="122" r="2" fill="#32BDD0"/>
<circle cx="189" cy="134" r="2" fill="#32BDD0"/>
<circle cx="189" cy="146" r="2" fill="#32BDD0"/>
<circle cx="189" cy="158" r="2" fill="#32BDD0"/>
<circle cx="189" cy="170" r="2" fill="#32BDD0"/>
<circle cx="189" cy="182" r="2" fill="#32BDD0"/>
<circle cx="189" cy="194" r="2" fill="#32BDD0"/>
<circle cx="189" cy="206" r="2" fill="#32BDD0"/>
<circle cx="189" cy="218" r="2" fill="#32BDD0"/>
<circle cx="189" cy="230" r="2" fill="#32BDD0"/>
<circle cx="189" cy="242" r="2" fill="#32BDD0"/>
<circle cx="189" cy="254" r="2" fill="#32BDD0"/>
<circle cx="189" cy="266" r="2" fill="#32BDD0"/>
<circle cx="200" cy="2" r="2" fill="#32BDD0"/>
<circle cx="200" cy="14" r="2" fill="#32BDD0"/>
<circle cx="200" cy="26" r="2" fill="#32BDD0"/>
<circle cx="200" cy="38" r="2" fill="#32BDD0"/>
<circle cx="200" cy="50" r="2" fill="#32BDD0"/>
<circle cx="200" cy="62" r="2" fill="#32BDD0"/>
<circle cx="200" cy="74" r="2" fill="#32BDD0"/>
<circle cx="200" cy="86" r="2" fill="#32BDD0"/>
<circle cx="200" cy="98" r="2" fill="#32BDD0"/>
<circle cx="200" cy="110" r="2" fill="#32BDD0"/>
<circle cx="200" cy="122" r="2" fill="#32BDD0"/>
<circle cx="200" cy="134" r="2" fill="#32BDD0"/>
<circle cx="200" cy="146" r="2" fill="#32BDD0"/>
<circle cx="200" cy="158" r="2" fill="#32BDD0"/>
<circle cx="200" cy="170" r="2" fill="#32BDD0"/>
<circle cx="200" cy="182" r="2" fill="#32BDD0"/>
<circle cx="200" cy="194" r="2" fill="#32BDD0"/>
<circle cx="200" cy="206" r="2" fill="#32BDD0"/>
<circle cx="200" cy="218" r="2" fill="#32BDD0"/>
<circle cx="200" cy="230" r="2" fill="#32BDD0"/>
<circle cx="200" cy="242" r="2" fill="#32BDD0"/>
<circle cx="200" cy="254" r="2" fill="#32BDD0"/>
<circle cx="200" cy="266" r="2" fill="#32BDD0"/>
</svg>
