<svg width="268" height="130" viewBox="0 0 268 130" fill="none" xmlns="http://www.w3.org/2000/svg">
<circle cx="2" cy="2" r="2" fill="#BBB4C2"/>
<circle cx="2" cy="16" r="2" fill="#BBB4C2"/>
<circle cx="2" cy="30" r="2" fill="#BBB4C2"/>
<circle cx="2" cy="44" r="2" fill="#BBB4C2"/>
<circle cx="2" cy="58" r="2" fill="#BBB4C2"/>
<circle cx="2" cy="72" r="2" fill="#BBB4C2"/>
<circle cx="2" cy="86" r="2" fill="#BBB4C2"/>
<circle cx="2" cy="100" r="2" fill="#BBB4C2"/>
<circle cx="2" cy="114" r="2" fill="#BBB4C2"/>
<circle cx="2" cy="128" r="2" fill="#BBB4C2"/>
<circle cx="14" cy="2" r="2" fill="#BBB4C2"/>
<circle cx="14" cy="16" r="2" fill="#BBB4C2"/>
<circle cx="14" cy="30" r="2" fill="#BBB4C2"/>
<circle cx="14" cy="44" r="2" fill="#BBB4C2"/>
<circle cx="14" cy="58" r="2" fill="#BBB4C2"/>
<circle cx="14" cy="72" r="2" fill="#BBB4C2"/>
<circle cx="14" cy="86" r="2" fill="#BBB4C2"/>
<circle cx="14" cy="100" r="2" fill="#BBB4C2"/>
<circle cx="14" cy="114" r="2" fill="#BBB4C2"/>
<circle cx="14" cy="128" r="2" fill="#BBB4C2"/>
<circle cx="26" cy="2" r="2" fill="#BBB4C2"/>
<circle cx="26" cy="16" r="2" fill="#BBB4C2"/>
<circle cx="26" cy="30" r="2" fill="#BBB4C2"/>
<circle cx="26" cy="44" r="2" fill="#BBB4C2"/>
<circle cx="26" cy="58" r="2" fill="#BBB4C2"/>
<circle cx="26" cy="72" r="2" fill="#BBB4C2"/>
<circle cx="26" cy="86" r="2" fill="#BBB4C2"/>
<circle cx="26" cy="100" r="2" fill="#BBB4C2"/>
<circle cx="26" cy="114" r="2" fill="#BBB4C2"/>
<circle cx="26" cy="128" r="2" fill="#BBB4C2"/>
<circle cx="38" cy="2" r="2" fill="#BBB4C2"/>
<circle cx="38" cy="16" r="2" fill="#BBB4C2"/>
<circle cx="38" cy="30" r="2" fill="#BBB4C2"/>
<circle cx="38" cy="44" r="2" fill="#BBB4C2"/>
<circle cx="38" cy="58" r="2" fill="#BBB4C2"/>
<circle cx="38" cy="72" r="2" fill="#BBB4C2"/>
<circle cx="38" cy="86" r="2" fill="#BBB4C2"/>
<circle cx="38" cy="100" r="2" fill="#BBB4C2"/>
<circle cx="38" cy="114" r="2" fill="#BBB4C2"/>
<circle cx="38" cy="128" r="2" fill="#BBB4C2"/>
<circle cx="50" cy="2" r="2" fill="#BBB4C2"/>
<circle cx="50" cy="16" r="2" fill="#BBB4C2"/>
<circle cx="50" cy="30" r="2" fill="#BBB4C2"/>
<circle cx="50" cy="44" r="2" fill="#BBB4C2"/>
<circle cx="50" cy="58" r="2" fill="#BBB4C2"/>
<circle cx="50" cy="72" r="2" fill="#BBB4C2"/>
<circle cx="50" cy="86" r="2" fill="#BBB4C2"/>
<circle cx="50" cy="100" r="2" fill="#BBB4C2"/>
<circle cx="50" cy="114" r="2" fill="#BBB4C2"/>
<circle cx="50" cy="128" r="2" fill="#BBB4C2"/>
<circle cx="62" cy="2" r="2" fill="#BBB4C2"/>
<circle cx="62" cy="16" r="2" fill="#BBB4C2"/>
<circle cx="62" cy="30" r="2" fill="#BBB4C2"/>
<circle cx="62" cy="44" r="2" fill="#BBB4C2"/>
<circle cx="62" cy="58" r="2" fill="#BBB4C2"/>
<circle cx="62" cy="72" r="2" fill="#BBB4C2"/>
<circle cx="62" cy="86" r="2" fill="#BBB4C2"/>
<circle cx="62" cy="100" r="2" fill="#BBB4C2"/>
<circle cx="62" cy="114" r="2" fill="#BBB4C2"/>
<circle cx="62" cy="128" r="2" fill="#BBB4C2"/>
<circle cx="74" cy="2" r="2" fill="#BBB4C2"/>
<circle cx="74" cy="16" r="2" fill="#BBB4C2"/>
<circle cx="74" cy="30" r="2" fill="#BBB4C2"/>
<circle cx="74" cy="44" r="2" fill="#BBB4C2"/>
<circle cx="74" cy="58" r="2" fill="#BBB4C2"/>
<circle cx="74" cy="72" r="2" fill="#BBB4C2"/>
<circle cx="74" cy="86" r="2" fill="#BBB4C2"/>
<circle cx="74" cy="100" r="2" fill="#BBB4C2"/>
<circle cx="74" cy="114" r="2" fill="#BBB4C2"/>
<circle cx="74" cy="128" r="2" fill="#BBB4C2"/>
<circle cx="86" cy="2" r="2" fill="#BBB4C2"/>
<circle cx="86" cy="16" r="2" fill="#BBB4C2"/>
<circle cx="86" cy="30" r="2" fill="#BBB4C2"/>
<circle cx="86" cy="44" r="2" fill="#BBB4C2"/>
<circle cx="86" cy="58" r="2" fill="#BBB4C2"/>
<circle cx="86" cy="72" r="2" fill="#BBB4C2"/>
<circle cx="86" cy="86" r="2" fill="#BBB4C2"/>
<circle cx="86" cy="100" r="2" fill="#BBB4C2"/>
<circle cx="86" cy="114" r="2" fill="#BBB4C2"/>
<circle cx="86" cy="128" r="2" fill="#BBB4C2"/>
<circle cx="98" cy="2" r="2" fill="#BBB4C2"/>
<circle cx="98" cy="16" r="2" fill="#BBB4C2"/>
<circle cx="98" cy="30" r="2" fill="#BBB4C2"/>
<circle cx="98" cy="44" r="2" fill="#BBB4C2"/>
<circle cx="98" cy="58" r="2" fill="#BBB4C2"/>
<circle cx="98" cy="72" r="2" fill="#BBB4C2"/>
<circle cx="98" cy="86" r="2" fill="#BBB4C2"/>
<circle cx="98" cy="100" r="2" fill="#BBB4C2"/>
<circle cx="98" cy="114" r="2" fill="#BBB4C2"/>
<circle cx="98" cy="128" r="2" fill="#BBB4C2"/>
<circle cx="110" cy="2" r="2" fill="#BBB4C2"/>
<circle cx="110" cy="16" r="2" fill="#BBB4C2"/>
<circle cx="110" cy="30" r="2" fill="#BBB4C2"/>
<circle cx="110" cy="44" r="2" fill="#BBB4C2"/>
<circle cx="110" cy="58" r="2" fill="#BBB4C2"/>
<circle cx="110" cy="72" r="2" fill="#BBB4C2"/>
<circle cx="110" cy="86" r="2" fill="#BBB4C2"/>
<circle cx="110" cy="100" r="2" fill="#BBB4C2"/>
<circle cx="110" cy="114" r="2" fill="#BBB4C2"/>
<circle cx="110" cy="128" r="2" fill="#BBB4C2"/>
<circle cx="122" cy="2" r="2" fill="#BBB4C2"/>
<circle cx="122" cy="16" r="2" fill="#BBB4C2"/>
<circle cx="122" cy="30" r="2" fill="#BBB4C2"/>
<circle cx="122" cy="44" r="2" fill="#BBB4C2"/>
<circle cx="122" cy="58" r="2" fill="#BBB4C2"/>
<circle cx="122" cy="72" r="2" fill="#BBB4C2"/>
<circle cx="122" cy="86" r="2" fill="#BBB4C2"/>
<circle cx="122" cy="100" r="2" fill="#BBB4C2"/>
<circle cx="122" cy="114" r="2" fill="#BBB4C2"/>
<circle cx="122" cy="128" r="2" fill="#BBB4C2"/>
<circle cx="134" cy="2" r="2" fill="#BBB4C2"/>
<circle cx="134" cy="16" r="2" fill="#BBB4C2"/>
<circle cx="134" cy="30" r="2" fill="#BBB4C2"/>
<circle cx="134" cy="44" r="2" fill="#BBB4C2"/>
<circle cx="134" cy="58" r="2" fill="#BBB4C2"/>
<circle cx="134" cy="72" r="2" fill="#BBB4C2"/>
<circle cx="134" cy="86" r="2" fill="#BBB4C2"/>
<circle cx="134" cy="100" r="2" fill="#BBB4C2"/>
<circle cx="134" cy="114" r="2" fill="#BBB4C2"/>
<circle cx="134" cy="128" r="2" fill="#BBB4C2"/>
<circle cx="146" cy="2" r="2" fill="#BBB4C2"/>
<circle cx="146" cy="16" r="2" fill="#BBB4C2"/>
<circle cx="146" cy="30" r="2" fill="#BBB4C2"/>
<circle cx="146" cy="44" r="2" fill="#BBB4C2"/>
<circle cx="146" cy="58" r="2" fill="#BBB4C2"/>
<circle cx="146" cy="72" r="2" fill="#BBB4C2"/>
<circle cx="146" cy="86" r="2" fill="#BBB4C2"/>
<circle cx="146" cy="100" r="2" fill="#BBB4C2"/>
<circle cx="146" cy="114" r="2" fill="#BBB4C2"/>
<circle cx="146" cy="128" r="2" fill="#BBB4C2"/>
<circle cx="158" cy="2" r="2" fill="#BBB4C2"/>
<circle cx="158" cy="16" r="2" fill="#BBB4C2"/>
<circle cx="158" cy="30" r="2" fill="#BBB4C2"/>
<circle cx="158" cy="44" r="2" fill="#BBB4C2"/>
<circle cx="158" cy="58" r="2" fill="#BBB4C2"/>
<circle cx="158" cy="72" r="2" fill="#BBB4C2"/>
<circle cx="158" cy="86" r="2" fill="#BBB4C2"/>
<circle cx="158" cy="100" r="2" fill="#BBB4C2"/>
<circle cx="158" cy="114" r="2" fill="#BBB4C2"/>
<circle cx="158" cy="128" r="2" fill="#BBB4C2"/>
<circle cx="170" cy="2" r="2" fill="#BBB4C2"/>
<circle cx="170" cy="16" r="2" fill="#BBB4C2"/>
<circle cx="170" cy="30" r="2" fill="#BBB4C2"/>
<circle cx="170" cy="44" r="2" fill="#BBB4C2"/>
<circle cx="170" cy="58" r="2" fill="#BBB4C2"/>
<circle cx="170" cy="72" r="2" fill="#BBB4C2"/>
<circle cx="170" cy="86" r="2" fill="#BBB4C2"/>
<circle cx="170" cy="100" r="2" fill="#BBB4C2"/>
<circle cx="170" cy="114" r="2" fill="#BBB4C2"/>
<circle cx="170" cy="128" r="2" fill="#BBB4C2"/>
<circle cx="182" cy="2" r="2" fill="#BBB4C2"/>
<circle cx="182" cy="16" r="2" fill="#BBB4C2"/>
<circle cx="182" cy="30" r="2" fill="#BBB4C2"/>
<circle cx="182" cy="44" r="2" fill="#BBB4C2"/>
<circle cx="182" cy="58" r="2" fill="#BBB4C2"/>
<circle cx="182" cy="72" r="2" fill="#BBB4C2"/>
<circle cx="182" cy="86" r="2" fill="#BBB4C2"/>
<circle cx="182" cy="100" r="2" fill="#BBB4C2"/>
<circle cx="182" cy="114" r="2" fill="#BBB4C2"/>
<circle cx="182" cy="128" r="2" fill="#BBB4C2"/>
<circle cx="194" cy="2" r="2" fill="#BBB4C2"/>
<circle cx="194" cy="16" r="2" fill="#BBB4C2"/>
<circle cx="194" cy="30" r="2" fill="#BBB4C2"/>
<circle cx="194" cy="44" r="2" fill="#BBB4C2"/>
<circle cx="194" cy="58" r="2" fill="#BBB4C2"/>
<circle cx="194" cy="72" r="2" fill="#BBB4C2"/>
<circle cx="194" cy="86" r="2" fill="#BBB4C2"/>
<circle cx="194" cy="100" r="2" fill="#BBB4C2"/>
<circle cx="194" cy="114" r="2" fill="#BBB4C2"/>
<circle cx="194" cy="128" r="2" fill="#BBB4C2"/>
<circle cx="206" cy="2" r="2" fill="#BBB4C2"/>
<circle cx="206" cy="16" r="2" fill="#BBB4C2"/>
<circle cx="206" cy="30" r="2" fill="#BBB4C2"/>
<circle cx="206" cy="44" r="2" fill="#BBB4C2"/>
<circle cx="206" cy="58" r="2" fill="#BBB4C2"/>
<circle cx="206" cy="72" r="2" fill="#BBB4C2"/>
<circle cx="206" cy="86" r="2" fill="#BBB4C2"/>
<circle cx="206" cy="100" r="2" fill="#BBB4C2"/>
<circle cx="206" cy="114" r="2" fill="#BBB4C2"/>
<circle cx="206" cy="128" r="2" fill="#BBB4C2"/>
<circle cx="218" cy="2" r="2" fill="#BBB4C2"/>
<circle cx="218" cy="16" r="2" fill="#BBB4C2"/>
<circle cx="218" cy="30" r="2" fill="#BBB4C2"/>
<circle cx="218" cy="44" r="2" fill="#BBB4C2"/>
<circle cx="218" cy="58" r="2" fill="#BBB4C2"/>
<circle cx="218" cy="72" r="2" fill="#BBB4C2"/>
<circle cx="218" cy="86" r="2" fill="#BBB4C2"/>
<circle cx="218" cy="100" r="2" fill="#BBB4C2"/>
<circle cx="218" cy="114" r="2" fill="#BBB4C2"/>
<circle cx="218" cy="128" r="2" fill="#BBB4C2"/>
<circle cx="230" cy="2" r="2" fill="#BBB4C2"/>
<circle cx="230" cy="16" r="2" fill="#BBB4C2"/>
<circle cx="230" cy="30" r="2" fill="#BBB4C2"/>
<circle cx="230" cy="44" r="2" fill="#BBB4C2"/>
<circle cx="230" cy="58" r="2" fill="#BBB4C2"/>
<circle cx="230" cy="72" r="2" fill="#BBB4C2"/>
<circle cx="230" cy="86" r="2" fill="#BBB4C2"/>
<circle cx="230" cy="100" r="2" fill="#BBB4C2"/>
<circle cx="230" cy="114" r="2" fill="#BBB4C2"/>
<circle cx="230" cy="128" r="2" fill="#BBB4C2"/>
<circle cx="242" cy="2" r="2" fill="#BBB4C2"/>
<circle cx="242" cy="16" r="2" fill="#BBB4C2"/>
<circle cx="242" cy="30" r="2" fill="#BBB4C2"/>
<circle cx="242" cy="44" r="2" fill="#BBB4C2"/>
<circle cx="242" cy="58" r="2" fill="#BBB4C2"/>
<circle cx="242" cy="72" r="2" fill="#BBB4C2"/>
<circle cx="242" cy="86" r="2" fill="#BBB4C2"/>
<circle cx="242" cy="100" r="2" fill="#BBB4C2"/>
<circle cx="242" cy="114" r="2" fill="#BBB4C2"/>
<circle cx="242" cy="128" r="2" fill="#BBB4C2"/>
<circle cx="254" cy="2" r="2" fill="#BBB4C2"/>
<circle cx="254" cy="16" r="2" fill="#BBB4C2"/>
<circle cx="254" cy="30" r="2" fill="#BBB4C2"/>
<circle cx="254" cy="44" r="2" fill="#BBB4C2"/>
<circle cx="254" cy="58" r="2" fill="#BBB4C2"/>
<circle cx="254" cy="72" r="2" fill="#BBB4C2"/>
<circle cx="254" cy="86" r="2" fill="#BBB4C2"/>
<circle cx="254" cy="100" r="2" fill="#BBB4C2"/>
<circle cx="254" cy="114" r="2" fill="#BBB4C2"/>
<circle cx="254" cy="128" r="2" fill="#BBB4C2"/>
<circle cx="266" cy="2" r="2" fill="#BBB4C2"/>
<circle cx="266" cy="16" r="2" fill="#BBB4C2"/>
<circle cx="266" cy="30" r="2" fill="#BBB4C2"/>
<circle cx="266" cy="44" r="2" fill="#BBB4C2"/>
<circle cx="266" cy="58" r="2" fill="#BBB4C2"/>
<circle cx="266" cy="72" r="2" fill="#BBB4C2"/>
<circle cx="266" cy="86" r="2" fill="#BBB4C2"/>
<circle cx="266" cy="100" r="2" fill="#BBB4C2"/>
<circle cx="266" cy="114" r="2" fill="#BBB4C2"/>
<circle cx="266" cy="128" r="2" fill="#BBB4C2"/>
</svg>
