<svg width="211" height="286" viewBox="0 0 211 286" fill="none" xmlns="http://www.w3.org/2000/svg">
<path d="M3.38379 6.02539H5.76318V6.62695H3.38379V9.21582H2.73389V6.62695H0.402832V6.02539H2.73389V3.52246H3.38379V6.02539Z" fill="#465779"/>
<path d="M3.38379 19.0254H5.76318V19.627H3.38379V22.2158H2.73389V19.627H0.402832V19.0254H2.73389V16.5225H3.38379V19.0254Z" fill="#465779"/>
<path d="M3.38379 32.0254H5.76318V32.627H3.38379V35.2158H2.73389V32.627H0.402832V32.0254H2.73389V29.5225H3.38379V32.0254Z" fill="#465779"/>
<path d="M3.38379 45.0254H5.76318V45.627H3.38379V48.2158H2.73389V45.627H0.402832V45.0254H2.73389V42.5225H3.38379V45.0254Z" fill="#465779"/>
<path d="M3.38379 58.0254H5.76318V58.627H3.38379V61.2158H2.73389V58.627H0.402832V58.0254H2.73389V55.5225H3.38379V58.0254Z" fill="#465779"/>
<path d="M3.38379 71.0254H5.76318V71.627H3.38379V74.2158H2.73389V71.627H0.402832V71.0254H2.73389V68.5225H3.38379V71.0254Z" fill="#465779"/>
<path d="M3.38379 84.0254H5.76318V84.627H3.38379V87.2158H2.73389V84.627H0.402832V84.0254H2.73389V81.5225H3.38379V84.0254Z" fill="#465779"/>
<path d="M3.38379 97.0254H5.76318V97.627H3.38379V100.216H2.73389V97.627H0.402832V97.0254H2.73389V94.5225H3.38379V97.0254Z" fill="#465779"/>
<path d="M3.38379 110.025H5.76318V110.627H3.38379V113.216H2.73389V110.627H0.402832V110.025H2.73389V107.522H3.38379V110.025Z" fill="#465779"/>
<path d="M3.38379 123.025H5.76318V123.627H3.38379V126.216H2.73389V123.627H0.402832V123.025H2.73389V120.522H3.38379V123.025Z" fill="#465779"/>
<path d="M3.38379 136.025H5.76318V136.627H3.38379V139.216H2.73389V136.627H0.402832V136.025H2.73389V133.522H3.38379V136.025Z" fill="#465779"/>
<path d="M3.38379 149.025H5.76318V149.627H3.38379V152.216H2.73389V149.627H0.402832V149.025H2.73389V146.522H3.38379V149.025Z" fill="#465779"/>
<path d="M3.38379 162.025H5.76318V162.627H3.38379V165.216H2.73389V162.627H0.402832V162.025H2.73389V159.522H3.38379V162.025Z" fill="#465779"/>
<path d="M3.38379 175.025H5.76318V175.627H3.38379V178.216H2.73389V175.627H0.402832V175.025H2.73389V172.522H3.38379V175.025Z" fill="#465779"/>
<path d="M3.38379 188.025H5.76318V188.627H3.38379V191.216H2.73389V188.627H0.402832V188.025H2.73389V185.522H3.38379V188.025Z" fill="#465779"/>
<path d="M3.38379 201.025H5.76318V201.627H3.38379V204.216H2.73389V201.627H0.402832V201.025H2.73389V198.522H3.38379V201.025Z" fill="#465779"/>
<path d="M3.38379 214.025H5.76318V214.627H3.38379V217.216H2.73389V214.627H0.402832V214.025H2.73389V211.522H3.38379V214.025Z" fill="#465779"/>
<path d="M3.38379 227.025H5.76318V227.627H3.38379V230.216H2.73389V227.627H0.402832V227.025H2.73389V224.522H3.38379V227.025Z" fill="#465779"/>
<path d="M3.38379 240.025H5.76318V240.627H3.38379V243.216H2.73389V240.627H0.402832V240.025H2.73389V237.522H3.38379V240.025Z" fill="#465779"/>
<path d="M3.38379 253.025H5.76318V253.627H3.38379V256.216H2.73389V253.627H0.402832V253.025H2.73389V250.522H3.38379V253.025Z" fill="#465779"/>
<path d="M3.38379 266.025H5.76318V266.627H3.38379V269.216H2.73389V266.627H0.402832V266.025H2.73389V263.522H3.38379V266.025Z" fill="#465779"/>
<path d="M3.38379 279.025H5.76318V279.627H3.38379V282.216H2.73389V279.627H0.402832V279.025H2.73389V276.522H3.38379V279.025Z" fill="#465779"/>
<path d="M15.3838 6.02539H17.7632V6.62695H15.3838V9.21582H14.7339V6.62695H12.4028V6.02539H14.7339V3.52246H15.3838V6.02539Z" fill="#465779"/>
<path d="M15.3838 19.0254H17.7632V19.627H15.3838V22.2158H14.7339V19.627H12.4028V19.0254H14.7339V16.5225H15.3838V19.0254Z" fill="#465779"/>
<path d="M15.3838 32.0254H17.7632V32.627H15.3838V35.2158H14.7339V32.627H12.4028V32.0254H14.7339V29.5225H15.3838V32.0254Z" fill="#465779"/>
<path d="M15.3838 45.0254H17.7632V45.627H15.3838V48.2158H14.7339V45.627H12.4028V45.0254H14.7339V42.5225H15.3838V45.0254Z" fill="#465779"/>
<path d="M15.3838 58.0254H17.7632V58.627H15.3838V61.2158H14.7339V58.627H12.4028V58.0254H14.7339V55.5225H15.3838V58.0254Z" fill="#465779"/>
<path d="M15.3838 71.0254H17.7632V71.627H15.3838V74.2158H14.7339V71.627H12.4028V71.0254H14.7339V68.5225H15.3838V71.0254Z" fill="#465779"/>
<path d="M15.3838 84.0254H17.7632V84.627H15.3838V87.2158H14.7339V84.627H12.4028V84.0254H14.7339V81.5225H15.3838V84.0254Z" fill="#465779"/>
<path d="M15.3838 97.0254H17.7632V97.627H15.3838V100.216H14.7339V97.627H12.4028V97.0254H14.7339V94.5225H15.3838V97.0254Z" fill="#465779"/>
<path d="M15.3838 110.025H17.7632V110.627H15.3838V113.216H14.7339V110.627H12.4028V110.025H14.7339V107.522H15.3838V110.025Z" fill="#465779"/>
<path d="M15.3838 123.025H17.7632V123.627H15.3838V126.216H14.7339V123.627H12.4028V123.025H14.7339V120.522H15.3838V123.025Z" fill="#465779"/>
<path d="M15.3838 136.025H17.7632V136.627H15.3838V139.216H14.7339V136.627H12.4028V136.025H14.7339V133.522H15.3838V136.025Z" fill="#465779"/>
<path d="M15.3838 149.025H17.7632V149.627H15.3838V152.216H14.7339V149.627H12.4028V149.025H14.7339V146.522H15.3838V149.025Z" fill="#465779"/>
<path d="M15.3838 162.025H17.7632V162.627H15.3838V165.216H14.7339V162.627H12.4028V162.025H14.7339V159.522H15.3838V162.025Z" fill="#465779"/>
<path d="M15.3838 175.025H17.7632V175.627H15.3838V178.216H14.7339V175.627H12.4028V175.025H14.7339V172.522H15.3838V175.025Z" fill="#465779"/>
<path d="M15.3838 188.025H17.7632V188.627H15.3838V191.216H14.7339V188.627H12.4028V188.025H14.7339V185.522H15.3838V188.025Z" fill="#465779"/>
<path d="M15.3838 201.025H17.7632V201.627H15.3838V204.216H14.7339V201.627H12.4028V201.025H14.7339V198.522H15.3838V201.025Z" fill="#465779"/>
<path d="M15.3838 214.025H17.7632V214.627H15.3838V217.216H14.7339V214.627H12.4028V214.025H14.7339V211.522H15.3838V214.025Z" fill="#465779"/>
<path d="M15.3838 227.025H17.7632V227.627H15.3838V230.216H14.7339V227.627H12.4028V227.025H14.7339V224.522H15.3838V227.025Z" fill="#465779"/>
<path d="M15.3838 240.025H17.7632V240.627H15.3838V243.216H14.7339V240.627H12.4028V240.025H14.7339V237.522H15.3838V240.025Z" fill="#465779"/>
<path d="M15.3838 253.025H17.7632V253.627H15.3838V256.216H14.7339V253.627H12.4028V253.025H14.7339V250.522H15.3838V253.025Z" fill="#465779"/>
<path d="M15.3838 266.025H17.7632V266.627H15.3838V269.216H14.7339V266.627H12.4028V266.025H14.7339V263.522H15.3838V266.025Z" fill="#465779"/>
<path d="M15.3838 279.025H17.7632V279.627H15.3838V282.216H14.7339V279.627H12.4028V279.025H14.7339V276.522H15.3838V279.025Z" fill="#465779"/>
<path d="M27.3838 6.02539H29.7632V6.62695H27.3838V9.21582H26.7339V6.62695H24.4028V6.02539H26.7339V3.52246H27.3838V6.02539Z" fill="#465779"/>
<path d="M27.3838 19.0254H29.7632V19.627H27.3838V22.2158H26.7339V19.627H24.4028V19.0254H26.7339V16.5225H27.3838V19.0254Z" fill="#465779"/>
<path d="M27.3838 32.0254H29.7632V32.627H27.3838V35.2158H26.7339V32.627H24.4028V32.0254H26.7339V29.5225H27.3838V32.0254Z" fill="#465779"/>
<path d="M27.3838 45.0254H29.7632V45.627H27.3838V48.2158H26.7339V45.627H24.4028V45.0254H26.7339V42.5225H27.3838V45.0254Z" fill="#465779"/>
<path d="M27.3838 58.0254H29.7632V58.627H27.3838V61.2158H26.7339V58.627H24.4028V58.0254H26.7339V55.5225H27.3838V58.0254Z" fill="#465779"/>
<path d="M27.3838 71.0254H29.7632V71.627H27.3838V74.2158H26.7339V71.627H24.4028V71.0254H26.7339V68.5225H27.3838V71.0254Z" fill="#465779"/>
<path d="M27.3838 84.0254H29.7632V84.627H27.3838V87.2158H26.7339V84.627H24.4028V84.0254H26.7339V81.5225H27.3838V84.0254Z" fill="#465779"/>
<path d="M27.3838 97.0254H29.7632V97.627H27.3838V100.216H26.7339V97.627H24.4028V97.0254H26.7339V94.5225H27.3838V97.0254Z" fill="#465779"/>
<path d="M27.3838 110.025H29.7632V110.627H27.3838V113.216H26.7339V110.627H24.4028V110.025H26.7339V107.522H27.3838V110.025Z" fill="#465779"/>
<path d="M27.3838 123.025H29.7632V123.627H27.3838V126.216H26.7339V123.627H24.4028V123.025H26.7339V120.522H27.3838V123.025Z" fill="#465779"/>
<path d="M27.3838 136.025H29.7632V136.627H27.3838V139.216H26.7339V136.627H24.4028V136.025H26.7339V133.522H27.3838V136.025Z" fill="#465779"/>
<path d="M27.3838 149.025H29.7632V149.627H27.3838V152.216H26.7339V149.627H24.4028V149.025H26.7339V146.522H27.3838V149.025Z" fill="#465779"/>
<path d="M27.3838 162.025H29.7632V162.627H27.3838V165.216H26.7339V162.627H24.4028V162.025H26.7339V159.522H27.3838V162.025Z" fill="#465779"/>
<path d="M27.3838 175.025H29.7632V175.627H27.3838V178.216H26.7339V175.627H24.4028V175.025H26.7339V172.522H27.3838V175.025Z" fill="#465779"/>
<path d="M27.3838 188.025H29.7632V188.627H27.3838V191.216H26.7339V188.627H24.4028V188.025H26.7339V185.522H27.3838V188.025Z" fill="#465779"/>
<path d="M27.3838 201.025H29.7632V201.627H27.3838V204.216H26.7339V201.627H24.4028V201.025H26.7339V198.522H27.3838V201.025Z" fill="#465779"/>
<path d="M27.3838 214.025H29.7632V214.627H27.3838V217.216H26.7339V214.627H24.4028V214.025H26.7339V211.522H27.3838V214.025Z" fill="#465779"/>
<path d="M27.3838 227.025H29.7632V227.627H27.3838V230.216H26.7339V227.627H24.4028V227.025H26.7339V224.522H27.3838V227.025Z" fill="#465779"/>
<path d="M27.3838 240.025H29.7632V240.627H27.3838V243.216H26.7339V240.627H24.4028V240.025H26.7339V237.522H27.3838V240.025Z" fill="#465779"/>
<path d="M27.3838 253.025H29.7632V253.627H27.3838V256.216H26.7339V253.627H24.4028V253.025H26.7339V250.522H27.3838V253.025Z" fill="#465779"/>
<path d="M27.3838 266.025H29.7632V266.627H27.3838V269.216H26.7339V266.627H24.4028V266.025H26.7339V263.522H27.3838V266.025Z" fill="#465779"/>
<path d="M27.3838 279.025H29.7632V279.627H27.3838V282.216H26.7339V279.627H24.4028V279.025H26.7339V276.522H27.3838V279.025Z" fill="#465779"/>
<path d="M39.3838 6.02539H41.7632V6.62695H39.3838V9.21582H38.7339V6.62695H36.4028V6.02539H38.7339V3.52246H39.3838V6.02539Z" fill="#465779"/>
<path d="M39.3838 19.0254H41.7632V19.627H39.3838V22.2158H38.7339V19.627H36.4028V19.0254H38.7339V16.5225H39.3838V19.0254Z" fill="#465779"/>
<path d="M39.3838 32.0254H41.7632V32.627H39.3838V35.2158H38.7339V32.627H36.4028V32.0254H38.7339V29.5225H39.3838V32.0254Z" fill="#465779"/>
<path d="M39.3838 45.0254H41.7632V45.627H39.3838V48.2158H38.7339V45.627H36.4028V45.0254H38.7339V42.5225H39.3838V45.0254Z" fill="#465779"/>
<path d="M39.3838 58.0254H41.7632V58.627H39.3838V61.2158H38.7339V58.627H36.4028V58.0254H38.7339V55.5225H39.3838V58.0254Z" fill="#465779"/>
<path d="M39.3838 71.0254H41.7632V71.627H39.3838V74.2158H38.7339V71.627H36.4028V71.0254H38.7339V68.5225H39.3838V71.0254Z" fill="#465779"/>
<path d="M39.3838 84.0254H41.7632V84.627H39.3838V87.2158H38.7339V84.627H36.4028V84.0254H38.7339V81.5225H39.3838V84.0254Z" fill="#465779"/>
<path d="M39.3838 97.0254H41.7632V97.627H39.3838V100.216H38.7339V97.627H36.4028V97.0254H38.7339V94.5225H39.3838V97.0254Z" fill="#465779"/>
<path d="M39.3838 110.025H41.7632V110.627H39.3838V113.216H38.7339V110.627H36.4028V110.025H38.7339V107.522H39.3838V110.025Z" fill="#465779"/>
<path d="M39.3838 123.025H41.7632V123.627H39.3838V126.216H38.7339V123.627H36.4028V123.025H38.7339V120.522H39.3838V123.025Z" fill="#465779"/>
<path d="M39.3838 136.025H41.7632V136.627H39.3838V139.216H38.7339V136.627H36.4028V136.025H38.7339V133.522H39.3838V136.025Z" fill="#465779"/>
<path d="M39.3838 149.025H41.7632V149.627H39.3838V152.216H38.7339V149.627H36.4028V149.025H38.7339V146.522H39.3838V149.025Z" fill="#465779"/>
<path d="M39.3838 162.025H41.7632V162.627H39.3838V165.216H38.7339V162.627H36.4028V162.025H38.7339V159.522H39.3838V162.025Z" fill="#465779"/>
<path d="M39.3838 175.025H41.7632V175.627H39.3838V178.216H38.7339V175.627H36.4028V175.025H38.7339V172.522H39.3838V175.025Z" fill="#465779"/>
<path d="M39.3838 188.025H41.7632V188.627H39.3838V191.216H38.7339V188.627H36.4028V188.025H38.7339V185.522H39.3838V188.025Z" fill="#465779"/>
<path d="M39.3838 201.025H41.7632V201.627H39.3838V204.216H38.7339V201.627H36.4028V201.025H38.7339V198.522H39.3838V201.025Z" fill="#465779"/>
<path d="M39.3838 214.025H41.7632V214.627H39.3838V217.216H38.7339V214.627H36.4028V214.025H38.7339V211.522H39.3838V214.025Z" fill="#465779"/>
<path d="M39.3838 227.025H41.7632V227.627H39.3838V230.216H38.7339V227.627H36.4028V227.025H38.7339V224.522H39.3838V227.025Z" fill="#465779"/>
<path d="M39.3838 240.025H41.7632V240.627H39.3838V243.216H38.7339V240.627H36.4028V240.025H38.7339V237.522H39.3838V240.025Z" fill="#465779"/>
<path d="M39.3838 253.025H41.7632V253.627H39.3838V256.216H38.7339V253.627H36.4028V253.025H38.7339V250.522H39.3838V253.025Z" fill="#465779"/>
<path d="M39.3838 266.025H41.7632V266.627H39.3838V269.216H38.7339V266.627H36.4028V266.025H38.7339V263.522H39.3838V266.025Z" fill="#465779"/>
<path d="M39.3838 279.025H41.7632V279.627H39.3838V282.216H38.7339V279.627H36.4028V279.025H38.7339V276.522H39.3838V279.025Z" fill="#465779"/>
<path d="M51.3838 6.02539H53.7632V6.62695H51.3838V9.21582H50.7339V6.62695H48.4028V6.02539H50.7339V3.52246H51.3838V6.02539Z" fill="#465779"/>
<path d="M51.3838 19.0254H53.7632V19.627H51.3838V22.2158H50.7339V19.627H48.4028V19.0254H50.7339V16.5225H51.3838V19.0254Z" fill="#465779"/>
<path d="M51.3838 32.0254H53.7632V32.627H51.3838V35.2158H50.7339V32.627H48.4028V32.0254H50.7339V29.5225H51.3838V32.0254Z" fill="#465779"/>
<path d="M51.3838 45.0254H53.7632V45.627H51.3838V48.2158H50.7339V45.627H48.4028V45.0254H50.7339V42.5225H51.3838V45.0254Z" fill="#465779"/>
<path d="M51.3838 58.0254H53.7632V58.627H51.3838V61.2158H50.7339V58.627H48.4028V58.0254H50.7339V55.5225H51.3838V58.0254Z" fill="#465779"/>
<path d="M51.3838 71.0254H53.7632V71.627H51.3838V74.2158H50.7339V71.627H48.4028V71.0254H50.7339V68.5225H51.3838V71.0254Z" fill="#465779"/>
<path d="M51.3838 84.0254H53.7632V84.627H51.3838V87.2158H50.7339V84.627H48.4028V84.0254H50.7339V81.5225H51.3838V84.0254Z" fill="#465779"/>
<path d="M51.3838 97.0254H53.7632V97.627H51.3838V100.216H50.7339V97.627H48.4028V97.0254H50.7339V94.5225H51.3838V97.0254Z" fill="#465779"/>
<path d="M51.3838 110.025H53.7632V110.627H51.3838V113.216H50.7339V110.627H48.4028V110.025H50.7339V107.522H51.3838V110.025Z" fill="#465779"/>
<path d="M51.3838 123.025H53.7632V123.627H51.3838V126.216H50.7339V123.627H48.4028V123.025H50.7339V120.522H51.3838V123.025Z" fill="#465779"/>
<path d="M51.3838 136.025H53.7632V136.627H51.3838V139.216H50.7339V136.627H48.4028V136.025H50.7339V133.522H51.3838V136.025Z" fill="#465779"/>
<path d="M51.3838 149.025H53.7632V149.627H51.3838V152.216H50.7339V149.627H48.4028V149.025H50.7339V146.522H51.3838V149.025Z" fill="#465779"/>
<path d="M51.3838 162.025H53.7632V162.627H51.3838V165.216H50.7339V162.627H48.4028V162.025H50.7339V159.522H51.3838V162.025Z" fill="#465779"/>
<path d="M51.3838 175.025H53.7632V175.627H51.3838V178.216H50.7339V175.627H48.4028V175.025H50.7339V172.522H51.3838V175.025Z" fill="#465779"/>
<path d="M51.3838 188.025H53.7632V188.627H51.3838V191.216H50.7339V188.627H48.4028V188.025H50.7339V185.522H51.3838V188.025Z" fill="#465779"/>
<path d="M51.3838 201.025H53.7632V201.627H51.3838V204.216H50.7339V201.627H48.4028V201.025H50.7339V198.522H51.3838V201.025Z" fill="#465779"/>
<path d="M51.3838 214.025H53.7632V214.627H51.3838V217.216H50.7339V214.627H48.4028V214.025H50.7339V211.522H51.3838V214.025Z" fill="#465779"/>
<path d="M51.3838 227.025H53.7632V227.627H51.3838V230.216H50.7339V227.627H48.4028V227.025H50.7339V224.522H51.3838V227.025Z" fill="#465779"/>
<path d="M51.3838 240.025H53.7632V240.627H51.3838V243.216H50.7339V240.627H48.4028V240.025H50.7339V237.522H51.3838V240.025Z" fill="#465779"/>
<path d="M51.3838 253.025H53.7632V253.627H51.3838V256.216H50.7339V253.627H48.4028V253.025H50.7339V250.522H51.3838V253.025Z" fill="#465779"/>
<path d="M51.3838 266.025H53.7632V266.627H51.3838V269.216H50.7339V266.627H48.4028V266.025H50.7339V263.522H51.3838V266.025Z" fill="#465779"/>
<path d="M51.3838 279.025H53.7632V279.627H51.3838V282.216H50.7339V279.627H48.4028V279.025H50.7339V276.522H51.3838V279.025Z" fill="#465779"/>
<path d="M63.3838 6.02539H65.7632V6.62695H63.3838V9.21582H62.7339V6.62695H60.4028V6.02539H62.7339V3.52246H63.3838V6.02539Z" fill="#465779"/>
<path d="M63.3838 19.0254H65.7632V19.627H63.3838V22.2158H62.7339V19.627H60.4028V19.0254H62.7339V16.5225H63.3838V19.0254Z" fill="#465779"/>
<path d="M63.3838 32.0254H65.7632V32.627H63.3838V35.2158H62.7339V32.627H60.4028V32.0254H62.7339V29.5225H63.3838V32.0254Z" fill="#465779"/>
<path d="M63.3838 45.0254H65.7632V45.627H63.3838V48.2158H62.7339V45.627H60.4028V45.0254H62.7339V42.5225H63.3838V45.0254Z" fill="#465779"/>
<path d="M63.3838 58.0254H65.7632V58.627H63.3838V61.2158H62.7339V58.627H60.4028V58.0254H62.7339V55.5225H63.3838V58.0254Z" fill="#465779"/>
<path d="M63.3838 71.0254H65.7632V71.627H63.3838V74.2158H62.7339V71.627H60.4028V71.0254H62.7339V68.5225H63.3838V71.0254Z" fill="#465779"/>
<path d="M63.3838 84.0254H65.7632V84.627H63.3838V87.2158H62.7339V84.627H60.4028V84.0254H62.7339V81.5225H63.3838V84.0254Z" fill="#465779"/>
<path d="M63.3838 97.0254H65.7632V97.627H63.3838V100.216H62.7339V97.627H60.4028V97.0254H62.7339V94.5225H63.3838V97.0254Z" fill="#465779"/>
<path d="M63.3838 110.025H65.7632V110.627H63.3838V113.216H62.7339V110.627H60.4028V110.025H62.7339V107.522H63.3838V110.025Z" fill="#465779"/>
<path d="M63.3838 123.025H65.7632V123.627H63.3838V126.216H62.7339V123.627H60.4028V123.025H62.7339V120.522H63.3838V123.025Z" fill="#465779"/>
<path d="M63.3838 136.025H65.7632V136.627H63.3838V139.216H62.7339V136.627H60.4028V136.025H62.7339V133.522H63.3838V136.025Z" fill="#465779"/>
<path d="M63.3838 149.025H65.7632V149.627H63.3838V152.216H62.7339V149.627H60.4028V149.025H62.7339V146.522H63.3838V149.025Z" fill="#465779"/>
<path d="M63.3838 162.025H65.7632V162.627H63.3838V165.216H62.7339V162.627H60.4028V162.025H62.7339V159.522H63.3838V162.025Z" fill="#465779"/>
<path d="M63.3838 175.025H65.7632V175.627H63.3838V178.216H62.7339V175.627H60.4028V175.025H62.7339V172.522H63.3838V175.025Z" fill="#465779"/>
<path d="M63.3838 188.025H65.7632V188.627H63.3838V191.216H62.7339V188.627H60.4028V188.025H62.7339V185.522H63.3838V188.025Z" fill="#465779"/>
<path d="M63.3838 201.025H65.7632V201.627H63.3838V204.216H62.7339V201.627H60.4028V201.025H62.7339V198.522H63.3838V201.025Z" fill="#465779"/>
<path d="M63.3838 214.025H65.7632V214.627H63.3838V217.216H62.7339V214.627H60.4028V214.025H62.7339V211.522H63.3838V214.025Z" fill="#465779"/>
<path d="M63.3838 227.025H65.7632V227.627H63.3838V230.216H62.7339V227.627H60.4028V227.025H62.7339V224.522H63.3838V227.025Z" fill="#465779"/>
<path d="M63.3838 240.025H65.7632V240.627H63.3838V243.216H62.7339V240.627H60.4028V240.025H62.7339V237.522H63.3838V240.025Z" fill="#465779"/>
<path d="M63.3838 253.025H65.7632V253.627H63.3838V256.216H62.7339V253.627H60.4028V253.025H62.7339V250.522H63.3838V253.025Z" fill="#465779"/>
<path d="M63.3838 266.025H65.7632V266.627H63.3838V269.216H62.7339V266.627H60.4028V266.025H62.7339V263.522H63.3838V266.025Z" fill="#465779"/>
<path d="M63.3838 279.025H65.7632V279.627H63.3838V282.216H62.7339V279.627H60.4028V279.025H62.7339V276.522H63.3838V279.025Z" fill="#465779"/>
<path d="M75.3838 6.02539H77.7632V6.62695H75.3838V9.21582H74.7339V6.62695H72.4028V6.02539H74.7339V3.52246H75.3838V6.02539Z" fill="#465779"/>
<path d="M75.3838 19.0254H77.7632V19.627H75.3838V22.2158H74.7339V19.627H72.4028V19.0254H74.7339V16.5225H75.3838V19.0254Z" fill="#465779"/>
<path d="M75.3838 32.0254H77.7632V32.627H75.3838V35.2158H74.7339V32.627H72.4028V32.0254H74.7339V29.5225H75.3838V32.0254Z" fill="#465779"/>
<path d="M75.3838 45.0254H77.7632V45.627H75.3838V48.2158H74.7339V45.627H72.4028V45.0254H74.7339V42.5225H75.3838V45.0254Z" fill="#465779"/>
<path d="M75.3838 58.0254H77.7632V58.627H75.3838V61.2158H74.7339V58.627H72.4028V58.0254H74.7339V55.5225H75.3838V58.0254Z" fill="#465779"/>
<path d="M75.3838 71.0254H77.7632V71.627H75.3838V74.2158H74.7339V71.627H72.4028V71.0254H74.7339V68.5225H75.3838V71.0254Z" fill="#465779"/>
<path d="M75.3838 84.0254H77.7632V84.627H75.3838V87.2158H74.7339V84.627H72.4028V84.0254H74.7339V81.5225H75.3838V84.0254Z" fill="#465779"/>
<path d="M75.3838 97.0254H77.7632V97.627H75.3838V100.216H74.7339V97.627H72.4028V97.0254H74.7339V94.5225H75.3838V97.0254Z" fill="#465779"/>
<path d="M75.3838 110.025H77.7632V110.627H75.3838V113.216H74.7339V110.627H72.4028V110.025H74.7339V107.522H75.3838V110.025Z" fill="#465779"/>
<path d="M75.3838 123.025H77.7632V123.627H75.3838V126.216H74.7339V123.627H72.4028V123.025H74.7339V120.522H75.3838V123.025Z" fill="#465779"/>
<path d="M75.3838 136.025H77.7632V136.627H75.3838V139.216H74.7339V136.627H72.4028V136.025H74.7339V133.522H75.3838V136.025Z" fill="#465779"/>
<path d="M75.3838 149.025H77.7632V149.627H75.3838V152.216H74.7339V149.627H72.4028V149.025H74.7339V146.522H75.3838V149.025Z" fill="#465779"/>
<path d="M75.3838 162.025H77.7632V162.627H75.3838V165.216H74.7339V162.627H72.4028V162.025H74.7339V159.522H75.3838V162.025Z" fill="#465779"/>
<path d="M75.3838 175.025H77.7632V175.627H75.3838V178.216H74.7339V175.627H72.4028V175.025H74.7339V172.522H75.3838V175.025Z" fill="#465779"/>
<path d="M75.3838 188.025H77.7632V188.627H75.3838V191.216H74.7339V188.627H72.4028V188.025H74.7339V185.522H75.3838V188.025Z" fill="#465779"/>
<path d="M75.3838 201.025H77.7632V201.627H75.3838V204.216H74.7339V201.627H72.4028V201.025H74.7339V198.522H75.3838V201.025Z" fill="#465779"/>
<path d="M75.3838 214.025H77.7632V214.627H75.3838V217.216H74.7339V214.627H72.4028V214.025H74.7339V211.522H75.3838V214.025Z" fill="#465779"/>
<path d="M75.3838 227.025H77.7632V227.627H75.3838V230.216H74.7339V227.627H72.4028V227.025H74.7339V224.522H75.3838V227.025Z" fill="#465779"/>
<path d="M75.3838 240.025H77.7632V240.627H75.3838V243.216H74.7339V240.627H72.4028V240.025H74.7339V237.522H75.3838V240.025Z" fill="#465779"/>
<path d="M75.3838 253.025H77.7632V253.627H75.3838V256.216H74.7339V253.627H72.4028V253.025H74.7339V250.522H75.3838V253.025Z" fill="#465779"/>
<path d="M75.3838 266.025H77.7632V266.627H75.3838V269.216H74.7339V266.627H72.4028V266.025H74.7339V263.522H75.3838V266.025Z" fill="#465779"/>
<path d="M75.3838 279.025H77.7632V279.627H75.3838V282.216H74.7339V279.627H72.4028V279.025H74.7339V276.522H75.3838V279.025Z" fill="#465779"/>
<path d="M87.3838 6.02539H89.7632V6.62695H87.3838V9.21582H86.7339V6.62695H84.4028V6.02539H86.7339V3.52246H87.3838V6.02539Z" fill="#465779"/>
<path d="M87.3838 19.0254H89.7632V19.627H87.3838V22.2158H86.7339V19.627H84.4028V19.0254H86.7339V16.5225H87.3838V19.0254Z" fill="#465779"/>
<path d="M87.3838 32.0254H89.7632V32.627H87.3838V35.2158H86.7339V32.627H84.4028V32.0254H86.7339V29.5225H87.3838V32.0254Z" fill="#465779"/>
<path d="M87.3838 45.0254H89.7632V45.627H87.3838V48.2158H86.7339V45.627H84.4028V45.0254H86.7339V42.5225H87.3838V45.0254Z" fill="#465779"/>
<path d="M87.3838 58.0254H89.7632V58.627H87.3838V61.2158H86.7339V58.627H84.4028V58.0254H86.7339V55.5225H87.3838V58.0254Z" fill="#465779"/>
<path d="M87.3838 71.0254H89.7632V71.627H87.3838V74.2158H86.7339V71.627H84.4028V71.0254H86.7339V68.5225H87.3838V71.0254Z" fill="#465779"/>
<path d="M87.3838 84.0254H89.7632V84.627H87.3838V87.2158H86.7339V84.627H84.4028V84.0254H86.7339V81.5225H87.3838V84.0254Z" fill="#465779"/>
<path d="M87.3838 97.0254H89.7632V97.627H87.3838V100.216H86.7339V97.627H84.4028V97.0254H86.7339V94.5225H87.3838V97.0254Z" fill="#465779"/>
<path d="M87.3838 110.025H89.7632V110.627H87.3838V113.216H86.7339V110.627H84.4028V110.025H86.7339V107.522H87.3838V110.025Z" fill="#465779"/>
<path d="M87.3838 123.025H89.7632V123.627H87.3838V126.216H86.7339V123.627H84.4028V123.025H86.7339V120.522H87.3838V123.025Z" fill="#465779"/>
<path d="M87.3838 136.025H89.7632V136.627H87.3838V139.216H86.7339V136.627H84.4028V136.025H86.7339V133.522H87.3838V136.025Z" fill="#465779"/>
<path d="M87.3838 149.025H89.7632V149.627H87.3838V152.216H86.7339V149.627H84.4028V149.025H86.7339V146.522H87.3838V149.025Z" fill="#465779"/>
<path d="M87.3838 162.025H89.7632V162.627H87.3838V165.216H86.7339V162.627H84.4028V162.025H86.7339V159.522H87.3838V162.025Z" fill="#465779"/>
<path d="M87.3838 175.025H89.7632V175.627H87.3838V178.216H86.7339V175.627H84.4028V175.025H86.7339V172.522H87.3838V175.025Z" fill="#465779"/>
<path d="M87.3838 188.025H89.7632V188.627H87.3838V191.216H86.7339V188.627H84.4028V188.025H86.7339V185.522H87.3838V188.025Z" fill="#465779"/>
<path d="M87.3838 201.025H89.7632V201.627H87.3838V204.216H86.7339V201.627H84.4028V201.025H86.7339V198.522H87.3838V201.025Z" fill="#465779"/>
<path d="M87.3838 214.025H89.7632V214.627H87.3838V217.216H86.7339V214.627H84.4028V214.025H86.7339V211.522H87.3838V214.025Z" fill="#465779"/>
<path d="M87.3838 227.025H89.7632V227.627H87.3838V230.216H86.7339V227.627H84.4028V227.025H86.7339V224.522H87.3838V227.025Z" fill="#465779"/>
<path d="M87.3838 240.025H89.7632V240.627H87.3838V243.216H86.7339V240.627H84.4028V240.025H86.7339V237.522H87.3838V240.025Z" fill="#465779"/>
<path d="M87.3838 253.025H89.7632V253.627H87.3838V256.216H86.7339V253.627H84.4028V253.025H86.7339V250.522H87.3838V253.025Z" fill="#465779"/>
<path d="M87.3838 266.025H89.7632V266.627H87.3838V269.216H86.7339V266.627H84.4028V266.025H86.7339V263.522H87.3838V266.025Z" fill="#465779"/>
<path d="M87.3838 279.025H89.7632V279.627H87.3838V282.216H86.7339V279.627H84.4028V279.025H86.7339V276.522H87.3838V279.025Z" fill="#465779"/>
<path d="M99.3838 6.02539H101.763V6.62695H99.3838V9.21582H98.7339V6.62695H96.4028V6.02539H98.7339V3.52246H99.3838V6.02539Z" fill="#465779"/>
<path d="M99.3838 19.0254H101.763V19.627H99.3838V22.2158H98.7339V19.627H96.4028V19.0254H98.7339V16.5225H99.3838V19.0254Z" fill="#465779"/>
<path d="M99.3838 32.0254H101.763V32.627H99.3838V35.2158H98.7339V32.627H96.4028V32.0254H98.7339V29.5225H99.3838V32.0254Z" fill="#465779"/>
<path d="M99.3838 45.0254H101.763V45.627H99.3838V48.2158H98.7339V45.627H96.4028V45.0254H98.7339V42.5225H99.3838V45.0254Z" fill="#465779"/>
<path d="M99.3838 58.0254H101.763V58.627H99.3838V61.2158H98.7339V58.627H96.4028V58.0254H98.7339V55.5225H99.3838V58.0254Z" fill="#465779"/>
<path d="M99.3838 71.0254H101.763V71.627H99.3838V74.2158H98.7339V71.627H96.4028V71.0254H98.7339V68.5225H99.3838V71.0254Z" fill="#465779"/>
<path d="M99.3838 84.0254H101.763V84.627H99.3838V87.2158H98.7339V84.627H96.4028V84.0254H98.7339V81.5225H99.3838V84.0254Z" fill="#465779"/>
<path d="M99.3838 97.0254H101.763V97.627H99.3838V100.216H98.7339V97.627H96.4028V97.0254H98.7339V94.5225H99.3838V97.0254Z" fill="#465779"/>
<path d="M99.3838 110.025H101.763V110.627H99.3838V113.216H98.7339V110.627H96.4028V110.025H98.7339V107.522H99.3838V110.025Z" fill="#465779"/>
<path d="M99.3838 123.025H101.763V123.627H99.3838V126.216H98.7339V123.627H96.4028V123.025H98.7339V120.522H99.3838V123.025Z" fill="#465779"/>
<path d="M99.3838 136.025H101.763V136.627H99.3838V139.216H98.7339V136.627H96.4028V136.025H98.7339V133.522H99.3838V136.025Z" fill="#465779"/>
<path d="M99.3838 149.025H101.763V149.627H99.3838V152.216H98.7339V149.627H96.4028V149.025H98.7339V146.522H99.3838V149.025Z" fill="#465779"/>
<path d="M99.3838 162.025H101.763V162.627H99.3838V165.216H98.7339V162.627H96.4028V162.025H98.7339V159.522H99.3838V162.025Z" fill="#465779"/>
<path d="M99.3838 175.025H101.763V175.627H99.3838V178.216H98.7339V175.627H96.4028V175.025H98.7339V172.522H99.3838V175.025Z" fill="#465779"/>
<path d="M99.3838 188.025H101.763V188.627H99.3838V191.216H98.7339V188.627H96.4028V188.025H98.7339V185.522H99.3838V188.025Z" fill="#465779"/>
<path d="M99.3838 201.025H101.763V201.627H99.3838V204.216H98.7339V201.627H96.4028V201.025H98.7339V198.522H99.3838V201.025Z" fill="#465779"/>
<path d="M99.3838 214.025H101.763V214.627H99.3838V217.216H98.7339V214.627H96.4028V214.025H98.7339V211.522H99.3838V214.025Z" fill="#465779"/>
<path d="M99.3838 227.025H101.763V227.627H99.3838V230.216H98.7339V227.627H96.4028V227.025H98.7339V224.522H99.3838V227.025Z" fill="#465779"/>
<path d="M99.3838 240.025H101.763V240.627H99.3838V243.216H98.7339V240.627H96.4028V240.025H98.7339V237.522H99.3838V240.025Z" fill="#465779"/>
<path d="M99.3838 253.025H101.763V253.627H99.3838V256.216H98.7339V253.627H96.4028V253.025H98.7339V250.522H99.3838V253.025Z" fill="#465779"/>
<path d="M99.3838 266.025H101.763V266.627H99.3838V269.216H98.7339V266.627H96.4028V266.025H98.7339V263.522H99.3838V266.025Z" fill="#465779"/>
<path d="M99.3838 279.025H101.763V279.627H99.3838V282.216H98.7339V279.627H96.4028V279.025H98.7339V276.522H99.3838V279.025Z" fill="#465779"/>
<path d="M111.384 6.02539H113.763V6.62695H111.384V9.21582H110.734V6.62695H108.403V6.02539H110.734V3.52246H111.384V6.02539Z" fill="#465779"/>
<path d="M111.384 19.0254H113.763V19.627H111.384V22.2158H110.734V19.627H108.403V19.0254H110.734V16.5225H111.384V19.0254Z" fill="#465779"/>
<path d="M111.384 32.0254H113.763V32.627H111.384V35.2158H110.734V32.627H108.403V32.0254H110.734V29.5225H111.384V32.0254Z" fill="#465779"/>
<path d="M111.384 45.0254H113.763V45.627H111.384V48.2158H110.734V45.627H108.403V45.0254H110.734V42.5225H111.384V45.0254Z" fill="#465779"/>
<path d="M111.384 58.0254H113.763V58.627H111.384V61.2158H110.734V58.627H108.403V58.0254H110.734V55.5225H111.384V58.0254Z" fill="#465779"/>
<path d="M111.384 71.0254H113.763V71.627H111.384V74.2158H110.734V71.627H108.403V71.0254H110.734V68.5225H111.384V71.0254Z" fill="#465779"/>
<path d="M111.384 84.0254H113.763V84.627H111.384V87.2158H110.734V84.627H108.403V84.0254H110.734V81.5225H111.384V84.0254Z" fill="#465779"/>
<path d="M111.384 97.0254H113.763V97.627H111.384V100.216H110.734V97.627H108.403V97.0254H110.734V94.5225H111.384V97.0254Z" fill="#465779"/>
<path d="M111.384 110.025H113.763V110.627H111.384V113.216H110.734V110.627H108.403V110.025H110.734V107.522H111.384V110.025Z" fill="#465779"/>
<path d="M111.384 123.025H113.763V123.627H111.384V126.216H110.734V123.627H108.403V123.025H110.734V120.522H111.384V123.025Z" fill="#465779"/>
<path d="M111.384 136.025H113.763V136.627H111.384V139.216H110.734V136.627H108.403V136.025H110.734V133.522H111.384V136.025Z" fill="#465779"/>
<path d="M111.384 149.025H113.763V149.627H111.384V152.216H110.734V149.627H108.403V149.025H110.734V146.522H111.384V149.025Z" fill="#465779"/>
<path d="M111.384 162.025H113.763V162.627H111.384V165.216H110.734V162.627H108.403V162.025H110.734V159.522H111.384V162.025Z" fill="#465779"/>
<path d="M111.384 175.025H113.763V175.627H111.384V178.216H110.734V175.627H108.403V175.025H110.734V172.522H111.384V175.025Z" fill="#465779"/>
<path d="M111.384 188.025H113.763V188.627H111.384V191.216H110.734V188.627H108.403V188.025H110.734V185.522H111.384V188.025Z" fill="#465779"/>
<path d="M111.384 201.025H113.763V201.627H111.384V204.216H110.734V201.627H108.403V201.025H110.734V198.522H111.384V201.025Z" fill="#465779"/>
<path d="M111.384 214.025H113.763V214.627H111.384V217.216H110.734V214.627H108.403V214.025H110.734V211.522H111.384V214.025Z" fill="#465779"/>
<path d="M111.384 227.025H113.763V227.627H111.384V230.216H110.734V227.627H108.403V227.025H110.734V224.522H111.384V227.025Z" fill="#465779"/>
<path d="M111.384 240.025H113.763V240.627H111.384V243.216H110.734V240.627H108.403V240.025H110.734V237.522H111.384V240.025Z" fill="#465779"/>
<path d="M111.384 253.025H113.763V253.627H111.384V256.216H110.734V253.627H108.403V253.025H110.734V250.522H111.384V253.025Z" fill="#465779"/>
<path d="M111.384 266.025H113.763V266.627H111.384V269.216H110.734V266.627H108.403V266.025H110.734V263.522H111.384V266.025Z" fill="#465779"/>
<path d="M111.384 279.025H113.763V279.627H111.384V282.216H110.734V279.627H108.403V279.025H110.734V276.522H111.384V279.025Z" fill="#465779"/>
<path d="M123.384 6.02539H125.763V6.62695H123.384V9.21582H122.734V6.62695H120.403V6.02539H122.734V3.52246H123.384V6.02539Z" fill="#465779"/>
<path d="M123.384 19.0254H125.763V19.627H123.384V22.2158H122.734V19.627H120.403V19.0254H122.734V16.5225H123.384V19.0254Z" fill="#465779"/>
<path d="M123.384 32.0254H125.763V32.627H123.384V35.2158H122.734V32.627H120.403V32.0254H122.734V29.5225H123.384V32.0254Z" fill="#465779"/>
<path d="M123.384 45.0254H125.763V45.627H123.384V48.2158H122.734V45.627H120.403V45.0254H122.734V42.5225H123.384V45.0254Z" fill="#465779"/>
<path d="M123.384 58.0254H125.763V58.627H123.384V61.2158H122.734V58.627H120.403V58.0254H122.734V55.5225H123.384V58.0254Z" fill="#465779"/>
<path d="M123.384 71.0254H125.763V71.627H123.384V74.2158H122.734V71.627H120.403V71.0254H122.734V68.5225H123.384V71.0254Z" fill="#465779"/>
<path d="M123.384 84.0254H125.763V84.627H123.384V87.2158H122.734V84.627H120.403V84.0254H122.734V81.5225H123.384V84.0254Z" fill="#465779"/>
<path d="M123.384 97.0254H125.763V97.627H123.384V100.216H122.734V97.627H120.403V97.0254H122.734V94.5225H123.384V97.0254Z" fill="#465779"/>
<path d="M123.384 110.025H125.763V110.627H123.384V113.216H122.734V110.627H120.403V110.025H122.734V107.522H123.384V110.025Z" fill="#465779"/>
<path d="M123.384 123.025H125.763V123.627H123.384V126.216H122.734V123.627H120.403V123.025H122.734V120.522H123.384V123.025Z" fill="#465779"/>
<path d="M123.384 136.025H125.763V136.627H123.384V139.216H122.734V136.627H120.403V136.025H122.734V133.522H123.384V136.025Z" fill="#465779"/>
<path d="M123.384 149.025H125.763V149.627H123.384V152.216H122.734V149.627H120.403V149.025H122.734V146.522H123.384V149.025Z" fill="#465779"/>
<path d="M123.384 162.025H125.763V162.627H123.384V165.216H122.734V162.627H120.403V162.025H122.734V159.522H123.384V162.025Z" fill="#465779"/>
<path d="M123.384 175.025H125.763V175.627H123.384V178.216H122.734V175.627H120.403V175.025H122.734V172.522H123.384V175.025Z" fill="#465779"/>
<path d="M123.384 188.025H125.763V188.627H123.384V191.216H122.734V188.627H120.403V188.025H122.734V185.522H123.384V188.025Z" fill="#465779"/>
<path d="M123.384 201.025H125.763V201.627H123.384V204.216H122.734V201.627H120.403V201.025H122.734V198.522H123.384V201.025Z" fill="#465779"/>
<path d="M123.384 214.025H125.763V214.627H123.384V217.216H122.734V214.627H120.403V214.025H122.734V211.522H123.384V214.025Z" fill="#465779"/>
<path d="M123.384 227.025H125.763V227.627H123.384V230.216H122.734V227.627H120.403V227.025H122.734V224.522H123.384V227.025Z" fill="#465779"/>
<path d="M123.384 240.025H125.763V240.627H123.384V243.216H122.734V240.627H120.403V240.025H122.734V237.522H123.384V240.025Z" fill="#465779"/>
<path d="M123.384 253.025H125.763V253.627H123.384V256.216H122.734V253.627H120.403V253.025H122.734V250.522H123.384V253.025Z" fill="#465779"/>
<path d="M123.384 266.025H125.763V266.627H123.384V269.216H122.734V266.627H120.403V266.025H122.734V263.522H123.384V266.025Z" fill="#465779"/>
<path d="M123.384 279.025H125.763V279.627H123.384V282.216H122.734V279.627H120.403V279.025H122.734V276.522H123.384V279.025Z" fill="#465779"/>
<path d="M135.384 6.02539H137.763V6.62695H135.384V9.21582H134.734V6.62695H132.403V6.02539H134.734V3.52246H135.384V6.02539Z" fill="#465779"/>
<path d="M135.384 19.0254H137.763V19.627H135.384V22.2158H134.734V19.627H132.403V19.0254H134.734V16.5225H135.384V19.0254Z" fill="#465779"/>
<path d="M135.384 32.0254H137.763V32.627H135.384V35.2158H134.734V32.627H132.403V32.0254H134.734V29.5225H135.384V32.0254Z" fill="#465779"/>
<path d="M135.384 45.0254H137.763V45.627H135.384V48.2158H134.734V45.627H132.403V45.0254H134.734V42.5225H135.384V45.0254Z" fill="#465779"/>
<path d="M135.384 58.0254H137.763V58.627H135.384V61.2158H134.734V58.627H132.403V58.0254H134.734V55.5225H135.384V58.0254Z" fill="#465779"/>
<path d="M135.384 71.0254H137.763V71.627H135.384V74.2158H134.734V71.627H132.403V71.0254H134.734V68.5225H135.384V71.0254Z" fill="#465779"/>
<path d="M135.384 84.0254H137.763V84.627H135.384V87.2158H134.734V84.627H132.403V84.0254H134.734V81.5225H135.384V84.0254Z" fill="#465779"/>
<path d="M135.384 97.0254H137.763V97.627H135.384V100.216H134.734V97.627H132.403V97.0254H134.734V94.5225H135.384V97.0254Z" fill="#465779"/>
<path d="M135.384 110.025H137.763V110.627H135.384V113.216H134.734V110.627H132.403V110.025H134.734V107.522H135.384V110.025Z" fill="#465779"/>
<path d="M135.384 123.025H137.763V123.627H135.384V126.216H134.734V123.627H132.403V123.025H134.734V120.522H135.384V123.025Z" fill="#465779"/>
<path d="M135.384 136.025H137.763V136.627H135.384V139.216H134.734V136.627H132.403V136.025H134.734V133.522H135.384V136.025Z" fill="#465779"/>
<path d="M135.384 149.025H137.763V149.627H135.384V152.216H134.734V149.627H132.403V149.025H134.734V146.522H135.384V149.025Z" fill="#465779"/>
<path d="M135.384 162.025H137.763V162.627H135.384V165.216H134.734V162.627H132.403V162.025H134.734V159.522H135.384V162.025Z" fill="#465779"/>
<path d="M135.384 175.025H137.763V175.627H135.384V178.216H134.734V175.627H132.403V175.025H134.734V172.522H135.384V175.025Z" fill="#465779"/>
<path d="M135.384 188.025H137.763V188.627H135.384V191.216H134.734V188.627H132.403V188.025H134.734V185.522H135.384V188.025Z" fill="#465779"/>
<path d="M135.384 201.025H137.763V201.627H135.384V204.216H134.734V201.627H132.403V201.025H134.734V198.522H135.384V201.025Z" fill="#465779"/>
<path d="M135.384 214.025H137.763V214.627H135.384V217.216H134.734V214.627H132.403V214.025H134.734V211.522H135.384V214.025Z" fill="#465779"/>
<path d="M135.384 227.025H137.763V227.627H135.384V230.216H134.734V227.627H132.403V227.025H134.734V224.522H135.384V227.025Z" fill="#465779"/>
<path d="M135.384 240.025H137.763V240.627H135.384V243.216H134.734V240.627H132.403V240.025H134.734V237.522H135.384V240.025Z" fill="#465779"/>
<path d="M135.384 253.025H137.763V253.627H135.384V256.216H134.734V253.627H132.403V253.025H134.734V250.522H135.384V253.025Z" fill="#465779"/>
<path d="M135.384 266.025H137.763V266.627H135.384V269.216H134.734V266.627H132.403V266.025H134.734V263.522H135.384V266.025Z" fill="#465779"/>
<path d="M135.384 279.025H137.763V279.627H135.384V282.216H134.734V279.627H132.403V279.025H134.734V276.522H135.384V279.025Z" fill="#465779"/>
<path d="M147.384 6.02539H149.763V6.62695H147.384V9.21582H146.734V6.62695H144.403V6.02539H146.734V3.52246H147.384V6.02539Z" fill="#465779"/>
<path d="M147.384 19.0254H149.763V19.627H147.384V22.2158H146.734V19.627H144.403V19.0254H146.734V16.5225H147.384V19.0254Z" fill="#465779"/>
<path d="M147.384 32.0254H149.763V32.627H147.384V35.2158H146.734V32.627H144.403V32.0254H146.734V29.5225H147.384V32.0254Z" fill="#465779"/>
<path d="M147.384 45.0254H149.763V45.627H147.384V48.2158H146.734V45.627H144.403V45.0254H146.734V42.5225H147.384V45.0254Z" fill="#465779"/>
<path d="M147.384 58.0254H149.763V58.627H147.384V61.2158H146.734V58.627H144.403V58.0254H146.734V55.5225H147.384V58.0254Z" fill="#465779"/>
<path d="M147.384 71.0254H149.763V71.627H147.384V74.2158H146.734V71.627H144.403V71.0254H146.734V68.5225H147.384V71.0254Z" fill="#465779"/>
<path d="M147.384 84.0254H149.763V84.627H147.384V87.2158H146.734V84.627H144.403V84.0254H146.734V81.5225H147.384V84.0254Z" fill="#465779"/>
<path d="M147.384 97.0254H149.763V97.627H147.384V100.216H146.734V97.627H144.403V97.0254H146.734V94.5225H147.384V97.0254Z" fill="#465779"/>
<path d="M147.384 110.025H149.763V110.627H147.384V113.216H146.734V110.627H144.403V110.025H146.734V107.522H147.384V110.025Z" fill="#465779"/>
<path d="M147.384 123.025H149.763V123.627H147.384V126.216H146.734V123.627H144.403V123.025H146.734V120.522H147.384V123.025Z" fill="#465779"/>
<path d="M147.384 136.025H149.763V136.627H147.384V139.216H146.734V136.627H144.403V136.025H146.734V133.522H147.384V136.025Z" fill="#465779"/>
<path d="M147.384 149.025H149.763V149.627H147.384V152.216H146.734V149.627H144.403V149.025H146.734V146.522H147.384V149.025Z" fill="#465779"/>
<path d="M147.384 162.025H149.763V162.627H147.384V165.216H146.734V162.627H144.403V162.025H146.734V159.522H147.384V162.025Z" fill="#465779"/>
<path d="M147.384 175.025H149.763V175.627H147.384V178.216H146.734V175.627H144.403V175.025H146.734V172.522H147.384V175.025Z" fill="#465779"/>
<path d="M147.384 188.025H149.763V188.627H147.384V191.216H146.734V188.627H144.403V188.025H146.734V185.522H147.384V188.025Z" fill="#465779"/>
<path d="M147.384 201.025H149.763V201.627H147.384V204.216H146.734V201.627H144.403V201.025H146.734V198.522H147.384V201.025Z" fill="#465779"/>
<path d="M147.384 214.025H149.763V214.627H147.384V217.216H146.734V214.627H144.403V214.025H146.734V211.522H147.384V214.025Z" fill="#465779"/>
<path d="M147.384 227.025H149.763V227.627H147.384V230.216H146.734V227.627H144.403V227.025H146.734V224.522H147.384V227.025Z" fill="#465779"/>
<path d="M147.384 240.025H149.763V240.627H147.384V243.216H146.734V240.627H144.403V240.025H146.734V237.522H147.384V240.025Z" fill="#465779"/>
<path d="M147.384 253.025H149.763V253.627H147.384V256.216H146.734V253.627H144.403V253.025H146.734V250.522H147.384V253.025Z" fill="#465779"/>
<path d="M147.384 266.025H149.763V266.627H147.384V269.216H146.734V266.627H144.403V266.025H146.734V263.522H147.384V266.025Z" fill="#465779"/>
<path d="M147.384 279.025H149.763V279.627H147.384V282.216H146.734V279.627H144.403V279.025H146.734V276.522H147.384V279.025Z" fill="#465779"/>
<path d="M159.384 6.02539H161.763V6.62695H159.384V9.21582H158.734V6.62695H156.403V6.02539H158.734V3.52246H159.384V6.02539Z" fill="#465779"/>
<path d="M159.384 19.0254H161.763V19.627H159.384V22.2158H158.734V19.627H156.403V19.0254H158.734V16.5225H159.384V19.0254Z" fill="#465779"/>
<path d="M159.384 32.0254H161.763V32.627H159.384V35.2158H158.734V32.627H156.403V32.0254H158.734V29.5225H159.384V32.0254Z" fill="#465779"/>
<path d="M159.384 45.0254H161.763V45.627H159.384V48.2158H158.734V45.627H156.403V45.0254H158.734V42.5225H159.384V45.0254Z" fill="#465779"/>
<path d="M159.384 58.0254H161.763V58.627H159.384V61.2158H158.734V58.627H156.403V58.0254H158.734V55.5225H159.384V58.0254Z" fill="#465779"/>
<path d="M159.384 71.0254H161.763V71.627H159.384V74.2158H158.734V71.627H156.403V71.0254H158.734V68.5225H159.384V71.0254Z" fill="#465779"/>
<path d="M159.384 84.0254H161.763V84.627H159.384V87.2158H158.734V84.627H156.403V84.0254H158.734V81.5225H159.384V84.0254Z" fill="#465779"/>
<path d="M159.384 97.0254H161.763V97.627H159.384V100.216H158.734V97.627H156.403V97.0254H158.734V94.5225H159.384V97.0254Z" fill="#465779"/>
<path d="M159.384 110.025H161.763V110.627H159.384V113.216H158.734V110.627H156.403V110.025H158.734V107.522H159.384V110.025Z" fill="#465779"/>
<path d="M159.384 123.025H161.763V123.627H159.384V126.216H158.734V123.627H156.403V123.025H158.734V120.522H159.384V123.025Z" fill="#465779"/>
<path d="M159.384 136.025H161.763V136.627H159.384V139.216H158.734V136.627H156.403V136.025H158.734V133.522H159.384V136.025Z" fill="#465779"/>
<path d="M159.384 149.025H161.763V149.627H159.384V152.216H158.734V149.627H156.403V149.025H158.734V146.522H159.384V149.025Z" fill="#465779"/>
<path d="M159.384 162.025H161.763V162.627H159.384V165.216H158.734V162.627H156.403V162.025H158.734V159.522H159.384V162.025Z" fill="#465779"/>
<path d="M159.384 175.025H161.763V175.627H159.384V178.216H158.734V175.627H156.403V175.025H158.734V172.522H159.384V175.025Z" fill="#465779"/>
<path d="M159.384 188.025H161.763V188.627H159.384V191.216H158.734V188.627H156.403V188.025H158.734V185.522H159.384V188.025Z" fill="#465779"/>
<path d="M159.384 201.025H161.763V201.627H159.384V204.216H158.734V201.627H156.403V201.025H158.734V198.522H159.384V201.025Z" fill="#465779"/>
<path d="M159.384 214.025H161.763V214.627H159.384V217.216H158.734V214.627H156.403V214.025H158.734V211.522H159.384V214.025Z" fill="#465779"/>
<path d="M159.384 227.025H161.763V227.627H159.384V230.216H158.734V227.627H156.403V227.025H158.734V224.522H159.384V227.025Z" fill="#465779"/>
<path d="M159.384 240.025H161.763V240.627H159.384V243.216H158.734V240.627H156.403V240.025H158.734V237.522H159.384V240.025Z" fill="#465779"/>
<path d="M159.384 253.025H161.763V253.627H159.384V256.216H158.734V253.627H156.403V253.025H158.734V250.522H159.384V253.025Z" fill="#465779"/>
<path d="M159.384 266.025H161.763V266.627H159.384V269.216H158.734V266.627H156.403V266.025H158.734V263.522H159.384V266.025Z" fill="#465779"/>
<path d="M159.384 279.025H161.763V279.627H159.384V282.216H158.734V279.627H156.403V279.025H158.734V276.522H159.384V279.025Z" fill="#465779"/>
<path d="M171.384 6.02539H173.763V6.62695H171.384V9.21582H170.734V6.62695H168.403V6.02539H170.734V3.52246H171.384V6.02539Z" fill="#465779"/>
<path d="M171.384 19.0254H173.763V19.627H171.384V22.2158H170.734V19.627H168.403V19.0254H170.734V16.5225H171.384V19.0254Z" fill="#465779"/>
<path d="M171.384 32.0254H173.763V32.627H171.384V35.2158H170.734V32.627H168.403V32.0254H170.734V29.5225H171.384V32.0254Z" fill="#465779"/>
<path d="M171.384 45.0254H173.763V45.627H171.384V48.2158H170.734V45.627H168.403V45.0254H170.734V42.5225H171.384V45.0254Z" fill="#465779"/>
<path d="M171.384 58.0254H173.763V58.627H171.384V61.2158H170.734V58.627H168.403V58.0254H170.734V55.5225H171.384V58.0254Z" fill="#465779"/>
<path d="M171.384 71.0254H173.763V71.627H171.384V74.2158H170.734V71.627H168.403V71.0254H170.734V68.5225H171.384V71.0254Z" fill="#465779"/>
<path d="M171.384 84.0254H173.763V84.627H171.384V87.2158H170.734V84.627H168.403V84.0254H170.734V81.5225H171.384V84.0254Z" fill="#465779"/>
<path d="M171.384 97.0254H173.763V97.627H171.384V100.216H170.734V97.627H168.403V97.0254H170.734V94.5225H171.384V97.0254Z" fill="#465779"/>
<path d="M171.384 110.025H173.763V110.627H171.384V113.216H170.734V110.627H168.403V110.025H170.734V107.522H171.384V110.025Z" fill="#465779"/>
<path d="M171.384 123.025H173.763V123.627H171.384V126.216H170.734V123.627H168.403V123.025H170.734V120.522H171.384V123.025Z" fill="#465779"/>
<path d="M171.384 136.025H173.763V136.627H171.384V139.216H170.734V136.627H168.403V136.025H170.734V133.522H171.384V136.025Z" fill="#465779"/>
<path d="M171.384 149.025H173.763V149.627H171.384V152.216H170.734V149.627H168.403V149.025H170.734V146.522H171.384V149.025Z" fill="#465779"/>
<path d="M171.384 162.025H173.763V162.627H171.384V165.216H170.734V162.627H168.403V162.025H170.734V159.522H171.384V162.025Z" fill="#465779"/>
<path d="M171.384 175.025H173.763V175.627H171.384V178.216H170.734V175.627H168.403V175.025H170.734V172.522H171.384V175.025Z" fill="#465779"/>
<path d="M171.384 188.025H173.763V188.627H171.384V191.216H170.734V188.627H168.403V188.025H170.734V185.522H171.384V188.025Z" fill="#465779"/>
<path d="M171.384 201.025H173.763V201.627H171.384V204.216H170.734V201.627H168.403V201.025H170.734V198.522H171.384V201.025Z" fill="#465779"/>
<path d="M171.384 214.025H173.763V214.627H171.384V217.216H170.734V214.627H168.403V214.025H170.734V211.522H171.384V214.025Z" fill="#465779"/>
<path d="M171.384 227.025H173.763V227.627H171.384V230.216H170.734V227.627H168.403V227.025H170.734V224.522H171.384V227.025Z" fill="#465779"/>
<path d="M171.384 240.025H173.763V240.627H171.384V243.216H170.734V240.627H168.403V240.025H170.734V237.522H171.384V240.025Z" fill="#465779"/>
<path d="M171.384 253.025H173.763V253.627H171.384V256.216H170.734V253.627H168.403V253.025H170.734V250.522H171.384V253.025Z" fill="#465779"/>
<path d="M171.384 266.025H173.763V266.627H171.384V269.216H170.734V266.627H168.403V266.025H170.734V263.522H171.384V266.025Z" fill="#465779"/>
<path d="M171.384 279.025H173.763V279.627H171.384V282.216H170.734V279.627H168.403V279.025H170.734V276.522H171.384V279.025Z" fill="#465779"/>
<path d="M183.384 6.02539H185.763V6.62695H183.384V9.21582H182.734V6.62695H180.403V6.02539H182.734V3.52246H183.384V6.02539Z" fill="#465779"/>
<path d="M183.384 19.0254H185.763V19.627H183.384V22.2158H182.734V19.627H180.403V19.0254H182.734V16.5225H183.384V19.0254Z" fill="#465779"/>
<path d="M183.384 32.0254H185.763V32.627H183.384V35.2158H182.734V32.627H180.403V32.0254H182.734V29.5225H183.384V32.0254Z" fill="#465779"/>
<path d="M183.384 45.0254H185.763V45.627H183.384V48.2158H182.734V45.627H180.403V45.0254H182.734V42.5225H183.384V45.0254Z" fill="#465779"/>
<path d="M183.384 58.0254H185.763V58.627H183.384V61.2158H182.734V58.627H180.403V58.0254H182.734V55.5225H183.384V58.0254Z" fill="#465779"/>
<path d="M183.384 71.0254H185.763V71.627H183.384V74.2158H182.734V71.627H180.403V71.0254H182.734V68.5225H183.384V71.0254Z" fill="#465779"/>
<path d="M183.384 84.0254H185.763V84.627H183.384V87.2158H182.734V84.627H180.403V84.0254H182.734V81.5225H183.384V84.0254Z" fill="#465779"/>
<path d="M183.384 97.0254H185.763V97.627H183.384V100.216H182.734V97.627H180.403V97.0254H182.734V94.5225H183.384V97.0254Z" fill="#465779"/>
<path d="M183.384 110.025H185.763V110.627H183.384V113.216H182.734V110.627H180.403V110.025H182.734V107.522H183.384V110.025Z" fill="#465779"/>
<path d="M183.384 123.025H185.763V123.627H183.384V126.216H182.734V123.627H180.403V123.025H182.734V120.522H183.384V123.025Z" fill="#465779"/>
<path d="M183.384 136.025H185.763V136.627H183.384V139.216H182.734V136.627H180.403V136.025H182.734V133.522H183.384V136.025Z" fill="#465779"/>
<path d="M183.384 149.025H185.763V149.627H183.384V152.216H182.734V149.627H180.403V149.025H182.734V146.522H183.384V149.025Z" fill="#465779"/>
<path d="M183.384 162.025H185.763V162.627H183.384V165.216H182.734V162.627H180.403V162.025H182.734V159.522H183.384V162.025Z" fill="#465779"/>
<path d="M183.384 175.025H185.763V175.627H183.384V178.216H182.734V175.627H180.403V175.025H182.734V172.522H183.384V175.025Z" fill="#465779"/>
<path d="M183.384 188.025H185.763V188.627H183.384V191.216H182.734V188.627H180.403V188.025H182.734V185.522H183.384V188.025Z" fill="#465779"/>
<path d="M183.384 201.025H185.763V201.627H183.384V204.216H182.734V201.627H180.403V201.025H182.734V198.522H183.384V201.025Z" fill="#465779"/>
<path d="M183.384 214.025H185.763V214.627H183.384V217.216H182.734V214.627H180.403V214.025H182.734V211.522H183.384V214.025Z" fill="#465779"/>
<path d="M183.384 227.025H185.763V227.627H183.384V230.216H182.734V227.627H180.403V227.025H182.734V224.522H183.384V227.025Z" fill="#465779"/>
<path d="M183.384 240.025H185.763V240.627H183.384V243.216H182.734V240.627H180.403V240.025H182.734V237.522H183.384V240.025Z" fill="#465779"/>
<path d="M183.384 253.025H185.763V253.627H183.384V256.216H182.734V253.627H180.403V253.025H182.734V250.522H183.384V253.025Z" fill="#465779"/>
<path d="M183.384 266.025H185.763V266.627H183.384V269.216H182.734V266.627H180.403V266.025H182.734V263.522H183.384V266.025Z" fill="#465779"/>
<path d="M183.384 279.025H185.763V279.627H183.384V282.216H182.734V279.627H180.403V279.025H182.734V276.522H183.384V279.025Z" fill="#465779"/>
<path d="M195.384 6.02539H197.763V6.62695H195.384V9.21582H194.734V6.62695H192.403V6.02539H194.734V3.52246H195.384V6.02539Z" fill="#465779"/>
<path d="M195.384 19.0254H197.763V19.627H195.384V22.2158H194.734V19.627H192.403V19.0254H194.734V16.5225H195.384V19.0254Z" fill="#465779"/>
<path d="M195.384 32.0254H197.763V32.627H195.384V35.2158H194.734V32.627H192.403V32.0254H194.734V29.5225H195.384V32.0254Z" fill="#465779"/>
<path d="M195.384 45.0254H197.763V45.627H195.384V48.2158H194.734V45.627H192.403V45.0254H194.734V42.5225H195.384V45.0254Z" fill="#465779"/>
<path d="M195.384 58.0254H197.763V58.627H195.384V61.2158H194.734V58.627H192.403V58.0254H194.734V55.5225H195.384V58.0254Z" fill="#465779"/>
<path d="M195.384 71.0254H197.763V71.627H195.384V74.2158H194.734V71.627H192.403V71.0254H194.734V68.5225H195.384V71.0254Z" fill="#465779"/>
<path d="M195.384 84.0254H197.763V84.627H195.384V87.2158H194.734V84.627H192.403V84.0254H194.734V81.5225H195.384V84.0254Z" fill="#465779"/>
<path d="M195.384 97.0254H197.763V97.627H195.384V100.216H194.734V97.627H192.403V97.0254H194.734V94.5225H195.384V97.0254Z" fill="#465779"/>
<path d="M195.384 110.025H197.763V110.627H195.384V113.216H194.734V110.627H192.403V110.025H194.734V107.522H195.384V110.025Z" fill="#465779"/>
<path d="M195.384 123.025H197.763V123.627H195.384V126.216H194.734V123.627H192.403V123.025H194.734V120.522H195.384V123.025Z" fill="#465779"/>
<path d="M195.384 136.025H197.763V136.627H195.384V139.216H194.734V136.627H192.403V136.025H194.734V133.522H195.384V136.025Z" fill="#465779"/>
<path d="M195.384 149.025H197.763V149.627H195.384V152.216H194.734V149.627H192.403V149.025H194.734V146.522H195.384V149.025Z" fill="#465779"/>
<path d="M195.384 162.025H197.763V162.627H195.384V165.216H194.734V162.627H192.403V162.025H194.734V159.522H195.384V162.025Z" fill="#465779"/>
<path d="M195.384 175.025H197.763V175.627H195.384V178.216H194.734V175.627H192.403V175.025H194.734V172.522H195.384V175.025Z" fill="#465779"/>
<path d="M195.384 188.025H197.763V188.627H195.384V191.216H194.734V188.627H192.403V188.025H194.734V185.522H195.384V188.025Z" fill="#465779"/>
<path d="M195.384 201.025H197.763V201.627H195.384V204.216H194.734V201.627H192.403V201.025H194.734V198.522H195.384V201.025Z" fill="#465779"/>
<path d="M195.384 214.025H197.763V214.627H195.384V217.216H194.734V214.627H192.403V214.025H194.734V211.522H195.384V214.025Z" fill="#465779"/>
<path d="M195.384 227.025H197.763V227.627H195.384V230.216H194.734V227.627H192.403V227.025H194.734V224.522H195.384V227.025Z" fill="#465779"/>
<path d="M195.384 240.025H197.763V240.627H195.384V243.216H194.734V240.627H192.403V240.025H194.734V237.522H195.384V240.025Z" fill="#465779"/>
<path d="M195.384 253.025H197.763V253.627H195.384V256.216H194.734V253.627H192.403V253.025H194.734V250.522H195.384V253.025Z" fill="#465779"/>
<path d="M195.384 266.025H197.763V266.627H195.384V269.216H194.734V266.627H192.403V266.025H194.734V263.522H195.384V266.025Z" fill="#465779"/>
<path d="M195.384 279.025H197.763V279.627H195.384V282.216H194.734V279.627H192.403V279.025H194.734V276.522H195.384V279.025Z" fill="#465779"/>
<path d="M207.384 6.02539H209.763V6.62695H207.384V9.21582H206.734V6.62695H204.403V6.02539H206.734V3.52246H207.384V6.02539Z" fill="#465779"/>
<path d="M207.384 19.0254H209.763V19.627H207.384V22.2158H206.734V19.627H204.403V19.0254H206.734V16.5225H207.384V19.0254Z" fill="#465779"/>
<path d="M207.384 32.0254H209.763V32.627H207.384V35.2158H206.734V32.627H204.403V32.0254H206.734V29.5225H207.384V32.0254Z" fill="#465779"/>
<path d="M207.384 45.0254H209.763V45.627H207.384V48.2158H206.734V45.627H204.403V45.0254H206.734V42.5225H207.384V45.0254Z" fill="#465779"/>
<path d="M207.384 58.0254H209.763V58.627H207.384V61.2158H206.734V58.627H204.403V58.0254H206.734V55.5225H207.384V58.0254Z" fill="#465779"/>
<path d="M207.384 71.0254H209.763V71.627H207.384V74.2158H206.734V71.627H204.403V71.0254H206.734V68.5225H207.384V71.0254Z" fill="#465779"/>
<path d="M207.384 84.0254H209.763V84.627H207.384V87.2158H206.734V84.627H204.403V84.0254H206.734V81.5225H207.384V84.0254Z" fill="#465779"/>
<path d="M207.384 97.0254H209.763V97.627H207.384V100.216H206.734V97.627H204.403V97.0254H206.734V94.5225H207.384V97.0254Z" fill="#465779"/>
<path d="M207.384 110.025H209.763V110.627H207.384V113.216H206.734V110.627H204.403V110.025H206.734V107.522H207.384V110.025Z" fill="#465779"/>
<path d="M207.384 123.025H209.763V123.627H207.384V126.216H206.734V123.627H204.403V123.025H206.734V120.522H207.384V123.025Z" fill="#465779"/>
<path d="M207.384 136.025H209.763V136.627H207.384V139.216H206.734V136.627H204.403V136.025H206.734V133.522H207.384V136.025Z" fill="#465779"/>
<path d="M207.384 149.025H209.763V149.627H207.384V152.216H206.734V149.627H204.403V149.025H206.734V146.522H207.384V149.025Z" fill="#465779"/>
<path d="M207.384 162.025H209.763V162.627H207.384V165.216H206.734V162.627H204.403V162.025H206.734V159.522H207.384V162.025Z" fill="#465779"/>
<path d="M207.384 175.025H209.763V175.627H207.384V178.216H206.734V175.627H204.403V175.025H206.734V172.522H207.384V175.025Z" fill="#465779"/>
<path d="M207.384 188.025H209.763V188.627H207.384V191.216H206.734V188.627H204.403V188.025H206.734V185.522H207.384V188.025Z" fill="#465779"/>
<path d="M207.384 201.025H209.763V201.627H207.384V204.216H206.734V201.627H204.403V201.025H206.734V198.522H207.384V201.025Z" fill="#465779"/>
<path d="M207.384 214.025H209.763V214.627H207.384V217.216H206.734V214.627H204.403V214.025H206.734V211.522H207.384V214.025Z" fill="#465779"/>
<path d="M207.384 227.025H209.763V227.627H207.384V230.216H206.734V227.627H204.403V227.025H206.734V224.522H207.384V227.025Z" fill="#465779"/>
<path d="M207.384 240.025H209.763V240.627H207.384V243.216H206.734V240.627H204.403V240.025H206.734V237.522H207.384V240.025Z" fill="#465779"/>
<path d="M207.384 253.025H209.763V253.627H207.384V256.216H206.734V253.627H204.403V253.025H206.734V250.522H207.384V253.025Z" fill="#465779"/>
<path d="M207.384 266.025H209.763V266.627H207.384V269.216H206.734V266.627H204.403V266.025H206.734V263.522H207.384V266.025Z" fill="#465779"/>
<path d="M207.384 279.025H209.763V279.627H207.384V282.216H206.734V279.627H204.403V279.025H206.734V276.522H207.384V279.025Z" fill="#465779"/>
</svg>
