<svg width="144" height="147" viewBox="0 0 144 147" fill="none" xmlns="http://www.w3.org/2000/svg">
<circle cx="2" cy="2" r="2" fill="#5815C6"/>
<circle cx="2" cy="15" r="2" fill="#5815C6"/>
<circle cx="2" cy="28" r="2" fill="#5815C6"/>
<circle cx="2" cy="41" r="2" fill="#5815C6"/>
<circle cx="2" cy="54" r="2" fill="#5815C6"/>
<circle cx="2" cy="67" r="2" fill="#5815C6"/>
<circle cx="2" cy="80" r="2" fill="#5815C6"/>
<circle cx="2" cy="93" r="2" fill="#5815C6"/>
<circle cx="2" cy="106" r="2" fill="#5815C6"/>
<circle cx="2" cy="119" r="2" fill="#5815C6"/>
<circle cx="2" cy="132" r="2" fill="#5815C6"/>
<circle cx="2" cy="145" r="2" fill="#5815C6"/>
<circle cx="16" cy="2" r="2" fill="#5815C6"/>
<circle cx="16" cy="15" r="2" fill="#5815C6"/>
<circle cx="16" cy="28" r="2" fill="#5815C6"/>
<circle cx="16" cy="41" r="2" fill="#5815C6"/>
<circle cx="16" cy="54" r="2" fill="#5815C6"/>
<circle cx="16" cy="67" r="2" fill="#5815C6"/>
<circle cx="16" cy="80" r="2" fill="#5815C6"/>
<circle cx="16" cy="93" r="2" fill="#5815C6"/>
<circle cx="16" cy="106" r="2" fill="#5815C6"/>
<circle cx="16" cy="119" r="2" fill="#5815C6"/>
<circle cx="16" cy="132" r="2" fill="#5815C6"/>
<circle cx="16" cy="145" r="2" fill="#5815C6"/>
<circle cx="30" cy="2" r="2" fill="#5815C6"/>
<circle cx="30" cy="15" r="2" fill="#5815C6"/>
<circle cx="30" cy="28" r="2" fill="#5815C6"/>
<circle cx="30" cy="41" r="2" fill="#5815C6"/>
<circle cx="30" cy="54" r="2" fill="#5815C6"/>
<circle cx="30" cy="67" r="2" fill="#5815C6"/>
<circle cx="30" cy="80" r="2" fill="#5815C6"/>
<circle cx="30" cy="93" r="2" fill="#5815C6"/>
<circle cx="30" cy="106" r="2" fill="#5815C6"/>
<circle cx="30" cy="119" r="2" fill="#5815C6"/>
<circle cx="30" cy="132" r="2" fill="#5815C6"/>
<circle cx="30" cy="145" r="2" fill="#5815C6"/>
<circle cx="44" cy="2" r="2" fill="#5815C6"/>
<circle cx="44" cy="15" r="2" fill="#5815C6"/>
<circle cx="44" cy="28" r="2" fill="#5815C6"/>
<circle cx="44" cy="41" r="2" fill="#5815C6"/>
<circle cx="44" cy="54" r="2" fill="#5815C6"/>
<circle cx="44" cy="67" r="2" fill="#5815C6"/>
<circle cx="44" cy="80" r="2" fill="#5815C6"/>
<circle cx="44" cy="93" r="2" fill="#5815C6"/>
<circle cx="44" cy="106" r="2" fill="#5815C6"/>
<circle cx="44" cy="119" r="2" fill="#5815C6"/>
<circle cx="44" cy="132" r="2" fill="#5815C6"/>
<circle cx="44" cy="145" r="2" fill="#5815C6"/>
<circle cx="58" cy="2" r="2" fill="#5815C6"/>
<circle cx="58" cy="15" r="2" fill="#5815C6"/>
<circle cx="58" cy="28" r="2" fill="#5815C6"/>
<circle cx="58" cy="41" r="2" fill="#5815C6"/>
<circle cx="58" cy="54" r="2" fill="#5815C6"/>
<circle cx="58" cy="67" r="2" fill="#5815C6"/>
<circle cx="58" cy="80" r="2" fill="#5815C6"/>
<circle cx="58" cy="93" r="2" fill="#5815C6"/>
<circle cx="58" cy="106" r="2" fill="#5815C6"/>
<circle cx="58" cy="119" r="2" fill="#5815C6"/>
<circle cx="58" cy="132" r="2" fill="#5815C6"/>
<circle cx="58" cy="145" r="2" fill="#5815C6"/>
<circle cx="72" cy="2" r="2" fill="#5815C6"/>
<circle cx="72" cy="15" r="2" fill="#5815C6"/>
<circle cx="72" cy="28" r="2" fill="#5815C6"/>
<circle cx="72" cy="41" r="2" fill="#5815C6"/>
<circle cx="72" cy="54" r="2" fill="#5815C6"/>
<circle cx="72" cy="67" r="2" fill="#5815C6"/>
<circle cx="72" cy="80" r="2" fill="#5815C6"/>
<circle cx="72" cy="93" r="2" fill="#5815C6"/>
<circle cx="72" cy="106" r="2" fill="#5815C6"/>
<circle cx="72" cy="119" r="2" fill="#5815C6"/>
<circle cx="72" cy="132" r="2" fill="#5815C6"/>
<circle cx="72" cy="145" r="2" fill="#5815C6"/>
<circle cx="86" cy="2" r="2" fill="#5815C6"/>
<circle cx="86" cy="15" r="2" fill="#5815C6"/>
<circle cx="86" cy="28" r="2" fill="#5815C6"/>
<circle cx="86" cy="41" r="2" fill="#5815C6"/>
<circle cx="86" cy="54" r="2" fill="#5815C6"/>
<circle cx="86" cy="67" r="2" fill="#5815C6"/>
<circle cx="86" cy="80" r="2" fill="#5815C6"/>
<circle cx="86" cy="93" r="2" fill="#5815C6"/>
<circle cx="86" cy="106" r="2" fill="#5815C6"/>
<circle cx="86" cy="119" r="2" fill="#5815C6"/>
<circle cx="86" cy="132" r="2" fill="#5815C6"/>
<circle cx="86" cy="145" r="2" fill="#5815C6"/>
<circle cx="100" cy="2" r="2" fill="#5815C6"/>
<circle cx="100" cy="15" r="2" fill="#5815C6"/>
<circle cx="100" cy="28" r="2" fill="#5815C6"/>
<circle cx="100" cy="41" r="2" fill="#5815C6"/>
<circle cx="100" cy="54" r="2" fill="#5815C6"/>
<circle cx="100" cy="67" r="2" fill="#5815C6"/>
<circle cx="100" cy="80" r="2" fill="#5815C6"/>
<circle cx="100" cy="93" r="2" fill="#5815C6"/>
<circle cx="100" cy="106" r="2" fill="#5815C6"/>
<circle cx="100" cy="119" r="2" fill="#5815C6"/>
<circle cx="100" cy="132" r="2" fill="#5815C6"/>
<circle cx="100" cy="145" r="2" fill="#5815C6"/>
<circle cx="114" cy="2" r="2" fill="#5815C6"/>
<circle cx="114" cy="15" r="2" fill="#5815C6"/>
<circle cx="114" cy="28" r="2" fill="#5815C6"/>
<circle cx="114" cy="41" r="2" fill="#5815C6"/>
<circle cx="114" cy="54" r="2" fill="#5815C6"/>
<circle cx="114" cy="67" r="2" fill="#5815C6"/>
<circle cx="114" cy="80" r="2" fill="#5815C6"/>
<circle cx="114" cy="93" r="2" fill="#5815C6"/>
<circle cx="114" cy="106" r="2" fill="#5815C6"/>
<circle cx="114" cy="119" r="2" fill="#5815C6"/>
<circle cx="114" cy="132" r="2" fill="#5815C6"/>
<circle cx="114" cy="145" r="2" fill="#5815C6"/>
<circle cx="128" cy="2" r="2" fill="#5815C6"/>
<circle cx="128" cy="15" r="2" fill="#5815C6"/>
<circle cx="128" cy="28" r="2" fill="#5815C6"/>
<circle cx="128" cy="41" r="2" fill="#5815C6"/>
<circle cx="128" cy="54" r="2" fill="#5815C6"/>
<circle cx="128" cy="67" r="2" fill="#5815C6"/>
<circle cx="128" cy="80" r="2" fill="#5815C6"/>
<circle cx="128" cy="93" r="2" fill="#5815C6"/>
<circle cx="128" cy="106" r="2" fill="#5815C6"/>
<circle cx="128" cy="119" r="2" fill="#5815C6"/>
<circle cx="128" cy="132" r="2" fill="#5815C6"/>
<circle cx="128" cy="145" r="2" fill="#5815C6"/>
<circle cx="142" cy="2" r="2" fill="#5815C6"/>
<circle cx="142" cy="15" r="2" fill="#5815C6"/>
<circle cx="142" cy="28" r="2" fill="#5815C6"/>
<circle cx="142" cy="41" r="2" fill="#5815C6"/>
<circle cx="142" cy="54" r="2" fill="#5815C6"/>
<circle cx="142" cy="67" r="2" fill="#5815C6"/>
<circle cx="142" cy="80" r="2" fill="#5815C6"/>
<circle cx="142" cy="93" r="2" fill="#5815C6"/>
<circle cx="142" cy="106" r="2" fill="#5815C6"/>
<circle cx="142" cy="119" r="2" fill="#5815C6"/>
<circle cx="142" cy="132" r="2" fill="#5815C6"/>
<circle cx="142" cy="145" r="2" fill="#5815C6"/>
</svg>
