<svg width="150" height="66" viewBox="0 0 150 66" fill="none" xmlns="http://www.w3.org/2000/svg">
<rect width="150" height="66" rx="5" fill="#232D67"/>
<path d="M35.0625 26.3281H29.7422V41H26.8008V26.3281H21.5273V23.9375H35.0625V26.3281ZM43.9453 39.7578C43.1094 40.7422 41.9219 41.2344 40.3828 41.2344C39.0078 41.2344 37.9648 40.832 37.2539 40.0273C36.5508 39.2227 36.1992 38.0586 36.1992 36.5352V28.3203H39.0469V36.5C39.0469 38.1094 39.7148 38.9141 41.0508 38.9141C42.4336 38.9141 43.3672 38.418 43.8516 37.4258V28.3203H46.6992V41H44.0156L43.9453 39.7578ZM49.1016 34.5664C49.1016 32.5977 49.5625 31.0273 50.4844 29.8555C51.4141 28.6758 52.6445 28.0859 54.1758 28.0859C55.6211 28.0859 56.7578 28.5898 57.5859 29.5977L57.7148 28.3203H60.2812V40.6133C60.2812 42.2773 59.7617 43.5898 58.7227 44.5508C57.6914 45.5117 56.2969 45.9922 54.5391 45.9922C53.6094 45.9922 52.6992 45.7969 51.8086 45.4062C50.9258 45.0234 50.2539 44.5195 49.793 43.8945L51.1406 42.1836C52.0156 43.2227 53.0938 43.7422 54.375 43.7422C55.3203 43.7422 56.0664 43.4844 56.6133 42.9688C57.1602 42.4609 57.4336 41.7109 57.4336 40.7188V39.8633C56.6133 40.7773 55.5195 41.2344 54.1523 41.2344C52.668 41.2344 51.4531 40.6445 50.5078 39.4648C49.5703 38.2852 49.1016 36.6523 49.1016 34.5664ZM51.9375 34.8125C51.9375 36.0859 52.1953 37.0898 52.7109 37.8242C53.2344 38.5508 53.957 38.9141 54.8789 38.9141C56.0273 38.9141 56.8789 38.4219 57.4336 37.4375V31.8594C56.8945 30.8984 56.0508 30.418 54.9023 30.418C53.9648 30.418 53.2344 30.7891 52.7109 31.5312C52.1953 32.2734 51.9375 33.3672 51.9375 34.8125ZM70.8984 39.7578C70.0625 40.7422 68.875 41.2344 67.3359 41.2344C65.9609 41.2344 64.918 40.832 64.207 40.0273C63.5039 39.2227 63.1523 38.0586 63.1523 36.5352V28.3203H66V36.5C66 38.1094 66.668 38.9141 68.0039 38.9141C69.3867 38.9141 70.3203 38.418 70.8047 37.4258V28.3203H73.6523V41H70.9688L70.8984 39.7578ZM83.1914 30.9219C82.8164 30.8594 82.4297 30.8281 82.0312 30.8281C80.7266 30.8281 79.8477 31.3281 79.3945 32.3281V41H76.5469V28.3203H79.2656L79.3359 29.7383C80.0234 28.6367 80.9766 28.0859 82.1953 28.0859C82.6016 28.0859 82.9375 28.1406 83.2031 28.25L83.1914 30.9219ZM90.3398 41.2344C88.5352 41.2344 87.0703 40.668 85.9453 39.5352C84.8281 38.3945 84.2695 36.8789 84.2695 34.9883V34.6367C84.2695 33.3711 84.5117 32.2422 84.9961 31.25C85.4883 30.25 86.1758 29.4727 87.0586 28.918C87.9414 28.3633 88.9258 28.0859 90.0117 28.0859C91.7383 28.0859 93.0703 28.6367 94.0078 29.7383C94.9531 30.8398 95.4258 32.3984 95.4258 34.4141V35.5625H87.1406C87.2266 36.6094 87.5742 37.4375 88.1836 38.0469C88.8008 38.6562 89.5742 38.9609 90.5039 38.9609C91.8086 38.9609 92.8711 38.4336 93.6914 37.3789L95.2266 38.8438C94.7188 39.6016 94.0391 40.1914 93.1875 40.6133C92.3438 41.0273 91.3945 41.2344 90.3398 41.2344ZM90 30.3711C89.2188 30.3711 88.5859 30.6445 88.1016 31.1914C87.625 31.7383 87.3203 32.5 87.1875 33.4766H92.6133V33.2656C92.5508 32.3125 92.2969 31.5938 91.8516 31.1094C91.4062 30.6172 90.7891 30.3711 90 30.3711Z" fill="white"/>
<circle cx="121" cy="28" r="5" fill="white"/>
<circle cx="120.5" cy="36.5" r="7.5" fill="white"/>
<circle cx="111" cy="33" r="10" fill="white"/>
</svg>
