<svg width="120" height="70" viewBox="0 0 120 70" fill="none" xmlns="http://www.w3.org/2000/svg">
<ellipse cx="60" cy="35" rx="60" ry="35" fill="#75095D"/>
<path d="M42.952 27.608C41.816 28.04 40.936 28.712 40.312 29.624C39.688 30.52 39.376 31.624 39.376 32.936C39.376 33.528 39.432 33.944 39.544 34.184C39.656 34.408 39.712 34.536 39.712 34.568C38.848 34.568 38.2 34.392 37.768 34.04C37.352 33.672 37.144 33.072 37.144 32.24C37.144 31.216 37.56 30.224 38.392 29.264C39.24 28.288 40.32 27.504 41.632 26.912C42.944 26.304 44.256 26 45.568 26C45.792 26 46.112 26.016 46.528 26.048L46.744 40.808L51.784 26.12H54.832L55.048 40.808L60.088 26.12H61.768L55.096 44H51.64L51.352 31.784L46.792 44H43.336L42.952 27.608ZM64.0939 30.704C63.5659 30.704 63.1179 30.52 62.7499 30.152C62.3819 29.784 62.1979 29.336 62.1979 28.808C62.1979 28.28 62.3819 27.832 62.7499 27.464C63.1179 27.08 63.5659 26.888 64.0939 26.888C64.6219 26.888 65.0699 27.08 65.4379 27.464C65.8219 27.832 66.0139 28.28 66.0139 28.808C66.0139 29.336 65.8219 29.784 65.4379 30.152C65.0699 30.52 64.6219 30.704 64.0939 30.704ZM62.4619 44.144C61.6939 44.144 61.0699 43.904 60.5899 43.424C60.1259 42.944 59.8939 42.224 59.8939 41.264C59.8939 40.864 59.9579 40.344 60.0859 39.704L61.7179 32H65.1739L63.4459 40.16C63.3819 40.4 63.3499 40.656 63.3499 40.928C63.3499 41.248 63.4219 41.48 63.5659 41.624C63.7259 41.752 63.9819 41.816 64.3339 41.816C64.6219 41.816 64.8779 41.768 65.1019 41.672C65.0379 42.472 64.7499 43.088 64.2379 43.52C63.7419 43.936 63.1499 44.144 62.4619 44.144ZM71.2219 33.296H69.8779C69.4299 33.296 69.0939 33.32 68.8699 33.368C68.6619 33.416 68.5579 33.52 68.5579 33.68C68.5579 33.712 68.5979 33.752 68.6779 33.8C68.7739 33.832 68.8219 33.968 68.8219 34.208C68.8219 34.624 68.6939 34.944 68.4379 35.168C68.1819 35.376 67.8779 35.48 67.5259 35.48C67.2219 35.48 66.9579 35.392 66.7339 35.216C66.5259 35.024 66.4219 34.76 66.4219 34.424C66.4219 34.088 66.5339 33.728 66.7579 33.344C66.9979 32.96 67.3259 32.64 67.7419 32.384C68.1739 32.128 68.6619 32 69.2059 32H75.3739L69.4939 42.152C69.5899 42.152 69.7659 42.168 70.0219 42.2C70.5659 42.264 70.9979 42.296 71.3179 42.296C72.0059 42.296 72.3819 42.136 72.4459 41.816C72.3019 41.8 72.1899 41.752 72.1099 41.672C72.0299 41.576 71.9899 41.456 71.9899 41.312C71.9899 41.056 72.1099 40.824 72.3499 40.616C72.5899 40.392 72.9179 40.28 73.3339 40.28C73.6859 40.28 73.9499 40.384 74.1259 40.592C74.3019 40.8 74.3899 41.08 74.3899 41.432C74.3899 41.816 74.2699 42.208 74.0299 42.608C73.7899 43.008 73.4459 43.344 72.9979 43.616C72.5499 43.872 72.0379 44 71.4619 44H65.1019L71.2219 33.296Z" fill="white"/>
<circle cx="77" cy="40" r="5" fill="white"/>
</svg>
